<svg width="915" height="880" viewBox="0 0 915 880" fill="none" xmlns="http://www.w3.org/2000/svg">
<g filter="url(#filter0_ddddd_28_3635)">
<path d="M441.587 231.01C448.731 224.757 459.476 223.249 467.933 219.41C486.007 210.882 502.958 200.153 518.4 187.466C528.101 178.843 534.43 168 546.983 162.454C549.93 161.813 552.836 160.993 555.683 160C557.043 159.137 561.937 151.738 563.72 150.172C564.615 149.281 563.26 147.7 562.158 148.61C560.574 149.922 555.234 157.524 553.675 157.767C548.497 158.693 543.563 160.666 539.175 163.567C533.41 167.766 528.164 172.633 523.544 178.067C510.581 191.842 485.09 207.6 468.839 215.803C454.216 223.184 445.509 224.209 440.481 230.303C440.691 230.785 441.141 231.231 441.587 231.01Z" fill="white" fill-opacity="0.9"/>
<path d="M584.045 106.859C581.452 109.989 579.275 113.441 577.567 117.129C573.666 123.675 568.189 130.973 568.189 139.013C568.195 139.116 568.233 139.215 568.299 139.294C568.365 139.374 568.455 139.43 568.555 139.455C568.655 139.48 568.761 139.472 568.856 139.432C568.951 139.392 569.031 139.323 569.084 139.234C570.871 136.109 571.926 132.709 573.55 129.631C578.912 119.412 585.607 112.333 585.607 107.519C585.825 106.634 584.715 106.41 584.045 106.859Z" fill="white" fill-opacity="0.9"/>
<path d="M607.939 110.88C605.206 109.513 591.721 116.115 587.171 123.162C586.736 123.839 587.617 124.503 588.288 124.057C593.249 119.484 599.103 115.986 605.481 113.784C606.373 113.548 607.714 113.559 608.16 112.667C608.606 111.997 608.831 111.105 607.939 110.88Z" fill="white" fill-opacity="0.9"/>
<path d="M611.954 116.241C609.054 115.313 601.685 118.92 600.568 119.812C599.898 120.258 600.344 121.599 601.239 121.153C604.69 120.121 608.201 119.3 611.751 118.695C612.625 118.474 613.974 116.886 611.954 116.241Z" fill="white" fill-opacity="0.9"/>
<path d="M605.254 125.391C604.591 125.623 605.033 126.733 605.704 126.508C615.092 124.162 618.982 125.87 620.439 123.829C620.567 123.615 620.615 123.363 620.575 123.118C620.534 122.872 620.408 122.649 620.218 122.488C617.76 119.588 607.723 124.536 605.254 125.391Z" fill="white" fill-opacity="0.9"/>
<path d="M581.588 153.08C581.506 153.171 581.463 153.289 581.466 153.41C581.469 153.532 581.519 153.647 581.605 153.733C581.691 153.819 581.807 153.869 581.928 153.872C582.05 153.876 582.168 153.832 582.258 153.751C585.383 151.293 588.957 149.06 592.082 146.381C598.972 140.642 606.737 136.044 615.083 132.762C617.761 131.646 620.883 131.421 623.565 130.304C623.84 130.25 624.084 130.095 624.251 129.87C624.417 129.645 624.494 129.366 624.467 129.088C624.439 128.809 624.309 128.551 624.101 128.363C623.894 128.175 623.624 128.071 623.344 128.071C618.237 128.282 613.259 129.74 608.844 132.316C602.368 135.53 596.297 139.502 590.759 144.148C587.512 146.925 584.449 149.908 581.588 153.08Z" fill="white" fill-opacity="0.9"/>
<path d="M650.14 118.248C649.909 118.995 649.85 119.784 649.965 120.557C650.08 121.33 650.368 122.067 650.807 122.714C653.24 126.303 656.401 126.031 659.964 127.18C661.309 127.615 662.197 127.401 662.643 126.734C663.089 126.067 662.418 125.617 661.751 125.172C659.293 124.055 657.952 123.83 654.827 122.714C652.37 121.597 652.819 120.481 652.819 120.481C655.4 122.143 658.282 123.281 661.302 123.83C665.565 124.236 667.827 120.8 666.884 118.918C667.569 118.75 668.171 118.342 668.581 117.768C668.99 117.194 669.181 116.492 669.117 115.79C668.577 111.335 657.06 108.87 653.711 109.762C656.39 107.083 665.101 109.316 668.446 110.878C669.117 111.103 669.788 110.432 669.117 109.986C667.521 108.421 665.573 107.259 663.437 106.599C661.3 105.939 659.037 105.799 656.836 106.191C653.109 106.677 649.401 108.529 650.14 112.219C649.698 112.587 649.341 113.048 649.097 113.569C648.852 114.09 648.726 114.658 648.726 115.234C648.726 115.809 648.852 116.378 649.097 116.898C649.341 117.419 649.698 117.88 650.14 118.248ZM663.535 120.481C660.609 122 653.711 117.356 653.711 117.356C654.207 116.951 654.729 116.578 655.273 116.24C657.982 117.201 660.74 118.02 663.535 118.694C664.205 119.364 664.423 120.02 663.535 120.481ZM666.217 115.569C666.217 116.24 665.322 116.24 664.876 116.24C663.063 115.326 657.107 112.419 655.273 113.34C655.052 113.115 653.711 112.444 653.486 112.223C655.724 111.904 658.003 112.035 660.19 112.61C662.376 113.185 664.425 114.191 666.217 115.569Z" fill="url(#paint0_linear_28_3635)"/>
<path d="M656.834 100.829C657.128 87.6341 646.466 70.419 656.613 59.0764C660.911 54.8191 666.705 52.4123 672.754 52.3703C678.804 52.3283 684.63 54.6545 688.988 58.8516C695.484 66.2031 692.348 76.9476 686.309 83.4146C679.57 90.6284 668.96 93.8691 666.882 102.17C666.437 103.512 668.695 104.635 669.34 103.287C673.447 94.8442 683.006 91.9406 688.988 85.2017C695.292 78.1004 698.38 66.881 692.562 58.6305C682.314 44.0979 654.325 47.451 649.914 65.5506C646.974 77.6001 653.263 89.443 655.714 101.054C656.167 101.5 656.819 101.5 656.834 100.829Z" fill="url(#paint1_linear_28_3635)"/>
<path d="M676.042 71.805C675.832 71.2582 675.509 70.7617 675.095 70.3474C674.681 69.933 674.185 69.6102 673.638 69.3998C673.091 69.1893 672.507 69.0959 671.922 69.1256C671.337 69.1552 670.764 69.3073 670.242 69.572C670.242 69.3472 668.679 65.106 665.555 67.5601C664.438 65.5519 662.655 65.9977 661.31 66.6684C660.589 67.1254 659.99 67.7497 659.563 68.4881C659.135 69.2265 658.893 70.0573 658.856 70.9096C657.558 80.9654 659.747 91.4525 660.643 101.28C660.418 102.842 662.651 103.288 662.876 101.947C665.479 90.3396 678.22 78.3481 676.042 71.805ZM661.973 97.4809C661.146 89.0228 660.848 80.5213 661.081 72.0261C661.303 70.9096 662.644 66.8931 663.981 69.1261C662.123 72.2904 661.562 76.0514 662.415 79.6205C662.546 79.9072 662.746 80.1565 662.998 80.3454C663.25 80.5342 663.546 80.6565 663.857 80.7009C664.169 80.7454 664.487 80.7105 664.782 80.5996C665.077 80.4887 665.339 80.3053 665.544 80.0664C666.756 76.7836 667.064 73.2356 666.436 69.7931C666.66 69.3472 668.669 69.1261 667.998 71.805C667.331 73.8258 666.955 75.9313 666.881 78.0581C666.881 78.384 667.011 78.6966 667.241 78.9271C667.472 79.1575 667.784 79.287 668.11 79.287C668.436 79.287 668.749 79.1575 668.979 78.9271C669.21 78.6966 669.339 78.384 669.339 78.0581C669.578 76.271 669.785 74.4839 670.01 72.4756C670.01 72.4756 673.359 69.3472 673.58 72.9215C674.744 78.1379 665.888 87.0409 661.973 97.4809Z" fill="url(#paint2_linear_28_3635)"/>
<path d="M774.286 103.514C771.39 92.9567 766.543 83.0346 759.996 74.2604C748.472 58.5823 739.953 57.8536 723.826 64.2155C715.72 67.2728 708.06 71.4021 701.05 76.4934C700.601 76.9429 701.05 77.6099 701.496 77.3888C707.608 73.9101 713.949 70.8508 720.476 68.232C736.727 61.388 744.521 59.6806 755.53 73.1439C761.968 81.1929 766.882 90.35 770.03 100.165C770.733 102.387 772.488 106.193 771.592 108.647C766.004 105.215 760.702 101.336 755.74 97.0471C755.478 96.8023 755.138 96.6564 754.779 96.6347C754.421 96.6129 754.066 96.7165 753.775 96.9278C753.484 97.1391 753.276 97.4448 753.187 97.7926C753.097 98.1405 753.131 98.5087 753.283 98.8343C754.874 101.274 755.437 104.243 754.849 107.096C753.522 110.228 750.589 109.572 748.371 107.991C743.537 104.069 739.127 99.6531 735.212 94.8141C734.103 93.4693 732.312 95.0389 732.533 96.3801C733.382 99.5044 733.683 102.752 733.425 105.979C729.408 104.435 726.429 97.7504 718.689 90.7976C713.393 86.038 706.408 82.3115 699.038 84.5445C697.922 84.9904 697.918 86.966 699.263 86.7775C707.053 85.69 713.553 90.127 718.91 95.4775C725.613 102.18 728.466 108.93 734.766 109.321C734.973 109.326 735.178 109.289 735.37 109.213C735.562 109.136 735.736 109.021 735.882 108.875C736.028 108.729 736.143 108.555 736.22 108.363C736.296 108.171 736.333 107.966 736.328 107.759C736.553 105.457 736.553 103.138 736.328 100.835C737.891 102.622 739.417 104.225 741.24 105.972C743.656 109.012 746.92 111.267 750.618 112.45C752.144 112.663 753.696 112.333 755.003 111.516C756.309 110.699 757.287 109.449 757.763 107.984C758.287 106.321 758.365 104.549 757.988 102.847C762.225 106.228 766.708 109.287 771.4 112C771.673 112.19 772.006 112.273 772.336 112.232C772.666 112.191 772.969 112.03 773.188 111.779C774.034 110.597 774.577 109.225 774.768 107.784C774.96 106.342 774.794 104.876 774.286 103.514Z" fill="white" fill-opacity="0.9"/>
<path d="M579.354 69.7995C579.93 69.7995 594.539 65.4024 594.539 64.4418C594.539 75.2261 609.692 68.2263 616.198 65.3371C615.528 67.7913 618.207 69.7995 620.219 70.0243C624.235 70.4701 627.599 67.1895 631.38 66.45C637.97 65.1631 643.56 69.4044 645.003 68.683C646.565 68.016 646.119 66.8995 644.557 66.2289C641.59 64.7076 638.311 63.8955 634.977 63.8565C631.643 63.8175 628.346 64.5526 625.344 66.0041C623.936 66.9062 622.325 67.4432 620.657 67.5665C620.188 67.5747 619.727 67.4389 619.337 67.1773C618.947 66.9157 618.646 66.541 618.476 66.1035C618.305 65.666 618.273 65.1867 618.383 64.7302C618.493 64.2736 618.74 63.8618 619.091 63.55C620.657 61.7629 618.199 61.5381 616.862 62.2088C612.793 64.2111 608.526 65.7832 604.131 66.8995C602.347 67.3563 593.861 66.45 597.881 62.8794C598.773 61.9876 597.881 59.9794 596.54 60.6464C592.012 62.5176 587.391 64.1571 582.696 65.5583C579.318 67.259 575.5 67.8827 571.756 67.3454C564.143 64.7318 579.162 50.8661 581.804 48.5896C591.784 39.9766 608.814 29.2974 621.549 32.7339C634.856 36.3299 639.163 52.7801 642.984 60.4216C643.051 60.5242 643.154 60.5985 643.273 60.6304C643.392 60.6623 643.518 60.6496 643.629 60.5948C643.739 60.54 643.825 60.4468 643.871 60.3327C643.917 60.2187 643.92 60.0917 643.879 59.9758C642.427 51.1166 638.391 42.8833 632.279 36.3081C624.239 28.2679 614.179 27.5683 603.696 31.6174C590.5 36.7004 578.926 45.2594 570.201 56.387C567.75 59.5154 564.56 64.2496 567.743 67.987C570.817 71.612 575.783 70.9088 579.354 69.7995Z" fill="white" fill-opacity="0.9"/>
<path d="M630.714 266.513C633.342 266.734 635.911 267.415 638.305 268.525C643.38 271.062 643.467 277.014 647.907 277.903C648.574 278.127 649.915 277.678 649.915 275.894C650.14 276.115 653.265 279.672 655.052 279.911C656.614 280.121 658.623 277.457 658.847 277.011C661.747 280.581 664.205 280.357 664.647 280.136C666.435 278.573 665.735 276.123 665.318 274.107C664.144 268.307 660.203 258.755 654.153 256.707C650.144 255.337 645.428 257.313 641.65 258.27C639.295 258.859 636.982 259.605 634.727 260.503C634.983 258.136 634.441 255.753 633.187 253.73C631.933 251.707 630.039 250.161 627.807 249.338C625.669 248.578 623.338 248.562 621.19 249.292C619.043 250.021 617.204 251.454 615.971 253.358C611.795 245.02 608.83 235.718 596.758 239.739C593.346 240.924 590.114 242.577 587.156 244.65C584.923 246.438 580.29 249.555 580.682 252.912C580.943 255.141 583.36 256.026 585.369 255.812C587.602 255.576 589.835 254.916 592.068 254.471C592.215 255.004 592.499 255.49 592.89 255.881C593.281 256.273 593.767 256.556 594.301 256.704C596.57 257.169 598.931 256.855 601 255.812C601.446 257.82 603.9 257.599 605.245 256.928C606.77 256.644 608.339 256.697 609.842 257.082C611.344 257.468 612.745 258.178 613.945 259.161C613.869 263.488 614.093 267.814 614.615 272.11C613.72 272.78 612.603 272.78 612.828 274.792C610.816 275.909 613.263 276.772 612.157 277.246C609.221 278.512 619.081 282.604 619.302 281.267C619.527 279.034 619.973 279.925 621.089 279.034C621.76 278.363 620.644 277.471 620.865 277.246C622.206 276.576 621.981 276.13 621.314 275.238C624.772 272.7 627.926 269.772 630.714 266.513Z" fill="url(#paint3_linear_28_3635)"/>
<path d="M262.062 361.634C261.985 361.766 261.935 361.912 261.915 362.063C261.895 362.215 261.906 362.369 261.946 362.517C261.987 362.664 262.056 362.802 262.15 362.922C262.245 363.043 262.362 363.143 262.496 363.217C262.63 363.291 262.777 363.338 262.929 363.355C263.081 363.372 263.235 363.358 263.381 363.314C263.528 363.271 263.664 363.199 263.783 363.102C263.901 363.005 263.999 362.885 264.07 362.75C270.205 354.204 277.326 346.409 285.284 339.528C304.322 321.041 298.156 320.316 342.222 266.959C353.542 253.25 357.979 252.318 393.131 242.621C390.699 252.354 396.499 268.145 398.492 276.113C399.83 281.511 400.282 287.092 399.83 292.635C399.835 292.739 399.873 292.838 399.939 292.918C400.004 292.998 400.094 293.055 400.194 293.08C400.295 293.105 400.401 293.098 400.496 293.058C400.592 293.018 400.672 292.949 400.725 292.86C402.621 284.523 399.678 271.712 397.597 263.385C395.341 256.63 394.729 249.435 395.81 242.396C396.337 240.303 397.508 238.429 399.159 237.039C399.275 236.978 399.362 236.874 399.403 236.75C399.443 236.625 399.433 236.49 399.374 236.373C399.316 236.256 399.214 236.166 399.091 236.123C398.967 236.081 398.832 236.088 398.714 236.143C397.542 236.541 396.484 237.216 395.629 238.11C394.773 239.004 394.147 240.092 393.802 241.28C381.353 243.014 369.143 246.161 357.407 250.658C346.445 255.53 339.311 265.611 332.173 274.775C298.221 318.351 297.409 323.549 286.175 335.062C277.91 343.545 267.692 350.82 262.062 361.634Z" fill="white" fill-opacity="0.9"/>
<path d="M382.862 283.259C370.732 311.088 350.791 329.659 329.494 348.013C313.943 361.425 297.384 377.139 277.023 375.479C275.46 375.254 275.235 377.937 276.577 378.158C295.622 381.294 312.598 366.373 327.486 353.595C350.066 334.216 373.738 312.1 383.753 283.93C384.199 283.259 383.083 282.589 382.862 283.259Z" fill="white" fill-opacity="0.9"/>
<path d="M248.664 378.158C240.881 380.513 233.445 383.892 226.551 388.206C223.396 389.852 220.996 392.652 219.852 396.022C219.628 396.693 220.509 397.128 220.969 396.468C223.971 392.598 227.882 389.53 232.355 387.536C238.21 384.62 244.345 382.301 250.665 380.616C252.452 382.624 257.81 390.215 259.365 390.661C261.373 391.11 263.178 389.352 264.723 388.428C266.625 387.251 268.418 385.907 270.08 384.411C270.976 383.74 269.859 382.624 268.964 383.07C267.18 383.74 260.481 387.982 260.032 387.761C256.537 383.985 253.328 379.953 250.433 375.7C249.987 374.363 260.257 367.439 261.373 366.101C261.515 365.956 261.606 365.768 261.632 365.566C261.658 365.365 261.618 365.16 261.517 364.983C261.416 364.807 261.261 364.668 261.074 364.588C260.887 364.507 260.679 364.49 260.481 364.539C256.856 366.737 253.347 369.122 249.969 371.684C248.628 372.8 247.286 373.917 247.736 375.7C247.765 376.599 248.092 377.464 248.664 378.158Z" fill="white" fill-opacity="0.9"/>
<path d="M575.334 157.993C575.334 158.663 571.764 163.129 570.872 164.917C570.735 165.166 570.683 165.453 570.724 165.734C570.764 166.015 570.894 166.276 571.095 166.477C571.296 166.679 571.556 166.809 571.837 166.85C572.119 166.891 572.406 166.84 572.655 166.704C574.301 165.134 575.797 163.414 577.125 161.567C577.832 160.787 578.26 159.793 578.341 158.743C578.422 157.693 578.151 156.646 577.571 155.767C574.454 152.264 571.098 148.981 567.526 145.943C566.438 145.026 564.843 146.389 565.96 147.506C568.189 150.402 575.113 157.326 575.334 157.993Z" fill="white" fill-opacity="0.9"/>
<path d="M551.668 212.03C529.251 238.109 505.576 251.34 494.059 266.065C493.178 267.192 494.73 268.744 495.622 267.627C518.967 245.119 532.861 238.051 553.23 214.485C563.891 202.16 578.83 183.458 572.442 168.266C572.395 168.106 572.291 167.969 572.149 167.881C572.008 167.792 571.839 167.758 571.674 167.785C571.51 167.813 571.361 167.899 571.255 168.028C571.15 168.157 571.095 168.32 571.101 168.487C571.971 176.482 570.249 184.545 566.189 191.488C562.286 198.952 557.402 205.861 551.668 212.03Z" fill="white" fill-opacity="0.9"/>
<path d="M422.38 456.085C422.605 458.318 437.565 528.433 437.79 529.549C442.15 530.304 446.548 530.825 450.963 531.111C455.872 530.796 492.941 509.898 494.282 508.999C493.119 502.601 463.107 388.544 459.225 378.136C457.402 379.635 455.265 380.704 452.972 381.261C447.647 382.711 411.886 382.378 391.347 375.012C390.784 381.306 389.89 387.567 388.668 393.767C388.516 394.128 388.27 394.442 387.957 394.677C387.644 394.913 387.273 395.06 386.884 395.105C381.458 394.514 376.172 393.004 371.253 390.639C371.616 390.824 345.661 498.157 339.545 513.45C339.991 512.334 395.813 522.828 396.262 522.828C407.202 485.984 420.6 449.814 431.765 412.969C432.432 411.182 433.534 411.182 433.328 413.415C432.4 423.308 424.323 450.814 422.38 456.085Z" fill="white" fill-opacity="0.9"/>
<path d="M204.008 457.869C216.406 451.391 227.676 443.369 240.621 438.221C240.378 438.584 242.18 440.817 216.061 472.159C216.013 472.202 215.975 472.254 215.948 472.313C215.921 472.371 215.906 472.435 215.904 472.499C215.902 472.564 215.914 472.628 215.938 472.688C215.962 472.748 215.997 472.802 216.043 472.848C216.089 472.893 216.143 472.929 216.203 472.953C216.263 472.977 216.327 472.988 216.391 472.987C216.456 472.985 216.519 472.97 216.578 472.943C216.636 472.916 216.689 472.877 216.732 472.829C226.664 463.508 235.233 452.834 242.187 441.121C243.844 443.91 246.197 446.22 249.015 447.825C251.833 449.43 255.02 450.275 258.264 450.278C263.618 449.981 270.088 446.037 269.425 440.005C268.522 431.747 258.274 430.714 251.786 431.522C249.81 431.758 247.865 432.206 245.986 432.86C247.102 429.511 248.886 425.273 249.335 423.928C251.188 418.146 253.131 404.951 242.19 406.068C241.474 406.954 240.873 407.929 240.403 408.968C243.564 407.706 248.451 410.606 247.994 417.668C246.813 423.327 245.093 428.859 242.857 434.19C228.543 439.795 215.206 447.633 203.345 457.412C203.113 457.423 203.562 458.101 204.008 457.869ZM244.423 436.648C250.223 434.64 257.8 432.661 263.4 435.981C274.123 442.325 255.161 457.325 243.753 437.765C244.025 437.424 244.251 437.049 244.423 436.648Z" fill="url(#paint4_linear_28_3635)"/>
<path d="M233.258 412.32C231.288 415.377 230.476 419.038 230.967 422.641C231.458 426.244 233.221 429.553 235.937 431.971C236.21 432.204 236.56 432.324 236.918 432.31C237.275 432.296 237.615 432.147 237.868 431.894C238.121 431.641 238.27 431.302 238.284 430.944C238.298 430.586 238.177 430.236 237.945 429.963C236.294 428.469 235.057 426.573 234.354 424.46C233.65 422.347 233.504 420.089 233.929 417.903C233.471 416.078 233.246 414.202 233.258 412.32Z" fill="url(#paint5_linear_28_3635)"/>
<path d="M237.943 403.838C235.71 408.304 233.256 414.779 235.264 419.69C235.489 420.361 236.606 420.136 236.827 419.466C237.718 415.018 237.015 409.921 241.072 403.838C243.305 400.043 247.992 394.236 251.787 401.605C250.818 400.66 249.682 399.903 248.438 399.372C247.771 399.148 247.1 399.818 247.771 400.264C258.932 410.537 273.671 424.827 274.117 425.944C274.342 426.389 270.768 429.068 269.876 430.631C269.205 431.526 270.543 432.418 271.213 431.972C273.072 431.119 274.742 429.903 276.125 428.398C276.646 427.871 276.956 427.172 276.998 426.432C277.039 425.692 276.809 424.963 276.35 424.381C273.918 420.789 253.349 403.389 253.349 402.722C254.499 395.834 244.16 391.405 237.943 403.838Z" fill="white" fill-opacity="0.9"/>
<path d="M233.032 398.029C231.823 399.151 230.906 400.551 230.361 402.108C229.817 403.664 229.661 405.331 229.907 406.961C229.817 407.806 229.972 408.66 230.353 409.419C231.023 410.757 231.93 411.431 232.14 409.865C232.464 406.389 233.37 402.992 234.819 399.817C235.044 398.7 234.373 397.359 233.032 398.029Z" fill="white" fill-opacity="0.9"/>
<path d="M230.13 393.34C227.683 394.562 223.355 400.674 224.997 401.377C226.139 401.95 226.628 399.445 230.355 396.465C231.025 395.794 232.392 394.885 231.696 393.786C231.545 393.522 231.297 393.327 231.004 393.244C230.711 393.16 230.397 393.195 230.13 393.34Z" fill="white" fill-opacity="0.9"/>
<path d="M406.084 213.816C406.166 215.657 406.75 217.441 407.772 218.974C408.794 220.508 410.216 221.732 411.884 222.516C413.449 223.2 415.206 223.307 416.842 222.816C418.478 222.325 419.886 221.27 420.816 219.837C420.928 219.63 420.96 219.389 420.907 219.159C420.853 218.93 420.718 218.728 420.527 218.591C420.335 218.454 420.1 218.391 419.866 218.415C419.631 218.439 419.414 218.548 419.254 218.721C415.556 221.958 410.419 221.421 408.534 215.147C409.43 215.147 420.816 214.925 421.947 214.476C422.048 214.422 422.132 214.341 422.19 214.243C422.249 214.144 422.28 214.032 422.28 213.918C422.28 213.803 422.249 213.691 422.19 213.593C422.132 213.494 422.048 213.414 421.947 213.359C420.83 212.914 408.328 212.914 407.211 212.692C406.934 212.749 406.68 212.886 406.48 213.086C406.279 213.285 406.142 213.539 406.084 213.816Z" fill="white" fill-opacity="0.9"/>
<path d="M411.219 192.824C413.294 197.186 416.257 201.065 419.919 204.214C418.784 204.434 417.664 204.732 416.57 205.106C416.4 205.154 416.25 205.256 416.144 205.397C416.037 205.538 415.979 205.71 415.979 205.887C415.979 206.064 416.037 206.236 416.144 206.377C416.25 206.518 416.4 206.62 416.57 206.668C419.655 207.698 424.131 205.302 422.598 203.768C420.811 201.981 418.803 200.194 417.016 198.407C415.228 196.62 413.666 194.611 411.879 192.607C411.665 191.933 411.219 192.378 411.219 192.824Z" fill="white" fill-opacity="0.9"/>
<path d="M406.083 196.622C405.191 195.506 404.075 195.056 403.404 196.398C402.734 197.96 404.296 200.193 405.637 200.864C408.316 201.748 406.975 197.514 406.083 196.622Z" fill="white" fill-opacity="0.9"/>
<path d="M419.256 190.594C418.365 189.477 417.248 189.031 416.578 190.373C415.907 191.935 417.469 194.168 418.811 194.839C421.489 195.73 420.163 191.489 419.256 190.594Z" fill="white" fill-opacity="0.9"/>
<path d="M401.17 188.583C401.39 188.44 401.558 188.229 401.649 187.982C401.739 187.736 401.747 187.466 401.672 187.215C401.596 186.963 401.441 186.743 401.23 186.587C401.018 186.431 400.762 186.348 400.499 186.35C399.552 186.382 398.643 186.729 397.916 187.336C397.188 187.942 396.682 188.774 396.479 189.699C396.273 191.63 396.662 193.578 397.596 195.282C397.82 195.728 398.491 195.728 398.491 195.057C398.491 193.719 397.82 190.816 398.712 189.474C399.583 189.344 400.419 189.041 401.17 188.583Z" fill="white" fill-opacity="0.9"/>
<path d="M413.453 180.99C411.202 180.371 406.797 181.86 408.316 184.786C408.464 185.057 408.698 185.27 408.981 185.392C409.265 185.513 409.581 185.536 409.879 185.456C410.549 185.232 410.103 184.115 410.325 183.445C411.22 182.107 412.782 182.999 413.899 182.778C415.45 182.778 414.337 181.233 413.453 180.99Z" fill="white" fill-opacity="0.9"/>
<path d="M350.036 457.2C350.216 457.159 350.385 457.083 350.535 456.976C350.685 456.869 350.811 456.733 350.908 456.576C351.004 456.42 351.068 456.245 351.096 456.063C351.124 455.882 351.116 455.696 351.071 455.517C351.026 455.339 350.946 455.171 350.836 455.024C350.726 454.877 350.587 454.753 350.428 454.66C350.269 454.567 350.093 454.507 349.911 454.483C349.728 454.459 349.543 454.472 349.366 454.521C344.682 455.663 241.921 485.424 232.361 488.462C231.691 488.676 231.916 489.578 232.586 489.354C256.928 483.111 342.917 459.85 350.036 457.2Z" fill="white" fill-opacity="0.9"/>
<path d="M594.761 442.017C601.014 441.778 607.267 441.582 613.521 440.9C615.529 440.679 615.529 437.732 613.521 437.772C513.355 439.777 564.946 440.019 528.224 440.672C528.046 440.672 527.876 440.743 527.75 440.868C527.624 440.994 527.554 441.165 527.554 441.343C527.554 441.52 527.624 441.691 527.75 441.817C527.876 441.942 528.046 442.013 528.224 442.013C555.738 442.568 563.3 443.206 594.761 442.017Z" fill="white" fill-opacity="0.9"/>
<path d="M576.231 591.396C512.297 559.431 478.871 545.613 474.633 543.612C473.73 543.188 472.842 544.518 473.741 544.953C507.722 561.392 576.749 596.025 579.591 596.308C580.708 596.533 581.824 595.192 580.929 594.3C579.595 592.999 577.991 592.008 576.231 591.396Z" fill="white" fill-opacity="0.9"/>
<path d="M623.12 443.578C622.228 443.132 621.557 444.695 622.449 445.141C635.861 451.84 689.334 477.74 702.166 484.653C705.791 486.6 720.462 494.727 724.493 496.485C726.051 497.167 726.95 494.702 725.609 493.806C721.121 490.366 653.098 454.714 623.12 443.578Z" fill="white" fill-opacity="0.9"/>
<path d="M709.31 501.175C705.58 503.038 599.287 582.092 584.044 594.287C583.598 594.733 584.265 595.628 584.715 595.179C598.33 585.862 707.062 506.101 710.647 502.516C711.318 501.86 710.201 500.519 709.31 501.175Z" fill="white" fill-opacity="0.9"/>
<path d="M457.439 544.063C456.612 553.274 444.298 668.905 444.026 697.462C444.026 699.025 446.259 699.025 446.484 697.462C448.34 684.467 458.519 550.411 458.766 544.063C459.001 543.168 457.439 543.168 457.439 544.063Z" fill="white" fill-opacity="0.9"/>
<path d="M203.558 528.431C185.428 537.73 166.618 545.642 147.291 552.099C153.769 545.82 183.295 517.056 193.959 505.209C194.626 504.539 193.51 503.422 192.843 504.093C177.676 517.741 147.733 547.15 140.592 554.118C139.686 554.999 140.592 557.018 141.933 556.572C163.442 549.663 184.29 540.845 204.229 530.225C206.016 529.769 204.903 527.768 203.558 528.431Z" fill="white" fill-opacity="0.9"/>
<path d="M569.083 600.328C569.083 599.882 568.187 599.882 567.966 600.328C567.296 603.452 566.85 615.734 566.625 616.404C564.631 616.404 445.742 710.339 445.38 710.633C445.155 710.857 389.113 703.263 370.132 701.03C376.4 681.593 375.544 651.969 373.257 644.538C370.823 644.784 368.425 645.309 366.112 646.104C360.877 647.242 338.134 649.004 335.299 649.004C334.629 649.004 334.629 650.092 335.299 650.121C347.589 650.351 359.868 649.228 371.912 646.771C371.912 651.183 376.468 679.034 365.213 706.391C362.846 706.391 319.538 708.846 306.488 708.846C306.426 708.84 306.363 708.847 306.304 708.867C306.245 708.887 306.19 708.919 306.144 708.961C306.098 709.004 306.061 709.055 306.036 709.112C306.011 709.169 305.998 709.231 305.998 709.293C305.998 709.356 306.011 709.417 306.036 709.475C306.061 709.532 306.098 709.583 306.144 709.625C306.19 709.667 306.245 709.699 306.304 709.719C306.363 709.739 306.426 709.747 306.488 709.741C311.4 710.187 316.536 710.781 321.448 710.857C328.818 710.966 365.434 708.846 366.551 707.729C366.996 707.283 369.451 701.701 369.679 701.929C378.161 703.491 386.872 705.26 395.355 706.616C403.62 707.939 441.577 713.094 445.597 712.869C445.96 712.869 568.934 618.373 569.521 614.846C569.907 610.005 569.76 605.136 569.083 600.328Z" fill="white" fill-opacity="0.9"/>
<path d="M364.106 224.757C375.263 235.915 393.979 236.897 401.171 223.416C401.268 223.24 401.313 223.04 401.301 222.84C401.289 222.64 401.221 222.447 401.104 222.284C400.987 222.121 400.827 221.994 400.641 221.917C400.456 221.841 400.252 221.819 400.055 221.853C398.209 222.464 396.217 222.468 394.368 221.865C392.52 221.263 390.913 220.085 389.782 218.504C389.782 217.387 387.998 217.166 387.549 218.058C385.316 222.524 378.896 220.715 377.054 216.717C374.879 212.004 380.85 208.455 384.87 210.467C385.702 211.053 386.659 211.439 387.665 211.593C388.671 211.748 389.7 211.668 390.67 211.359C393.378 210.079 393.349 206.668 393.349 203.989C393.349 197.74 390.717 191.28 392.678 185.234C395.339 177.041 405.213 169.258 411.658 175.631C421.866 186.307 428.297 200.032 429.968 214.708C430.574 219.628 430.168 225.605 425.056 228.121C421.768 229.618 418.125 230.16 414.544 229.683C413.427 229.459 412.757 231.246 414.094 231.47C416.564 232.155 419.138 232.382 421.689 232.141C421.372 236.169 421.982 240.217 423.472 243.973C424.608 246.532 426.376 248.759 428.609 250.447C429.66 255.863 429.431 261.449 427.938 266.76C425.038 265.197 422.388 263.584 419.677 262.073C416.342 260.373 413.134 258.434 410.078 256.273C409.628 255.827 408.961 256.719 409.407 257.164C415.026 262.273 421.341 266.558 428.163 269.892C428.348 270 428.557 270.063 428.771 270.076C428.986 270.088 429.2 270.048 429.396 269.961C429.592 269.874 429.765 269.742 429.9 269.574C430.035 269.407 430.128 269.21 430.171 269C432.054 262.384 432.285 255.407 430.842 248.682C428.516 246.972 426.607 244.757 425.259 242.204C424.112 238.791 423.29 235.277 422.805 231.71C425.804 231.363 428.551 229.866 430.467 227.533C432.382 225.201 433.318 222.216 433.075 219.207C433.157 216.204 432.857 213.203 432.183 210.275C434.43 209.256 436.404 207.72 437.944 205.793C439.485 203.867 440.549 201.603 441.049 199.188C441.55 196.772 441.472 194.272 440.824 191.892C440.175 189.512 438.973 187.319 437.316 185.491C433.289 180.362 427.297 177.422 422.135 172.985C417.716 169.124 413.928 164.412 408.316 162.237C405.35 161.182 402.139 161.023 399.083 161.776C396.027 162.53 393.259 164.165 391.123 166.478C390.949 166.741 390.869 167.055 390.898 167.37C387.153 167.024 383.376 167.327 379.733 168.265C365.958 172.303 363.127 188.079 356.29 198.632C353.122 203.518 348.116 209.166 350.037 215.379C350.95 218.319 352.846 220.856 355.408 222.564C357.969 224.272 361.041 225.046 364.106 224.757Z" fill="white" fill-opacity="0.9"/>
<path d="M335.749 508.335C336.184 509.013 337.8 508.336 337.086 503.424C336.666 500.524 335.785 481.869 321.009 477.523C316.31 476.298 311.329 476.772 306.944 478.861C304.711 479.806 302.758 481.308 301.272 483.225C299.787 485.141 298.817 487.406 298.458 489.804C297.286 496.169 298.648 502.74 302.254 508.114C302.294 508.181 302.349 508.239 302.413 508.283C302.477 508.328 302.55 508.359 302.627 508.373C302.704 508.388 302.783 508.387 302.859 508.369C302.936 508.352 303.007 508.318 303.07 508.271C303.133 508.225 303.185 508.165 303.223 508.097C303.261 508.028 303.285 507.953 303.293 507.875C303.3 507.797 303.291 507.719 303.266 507.644C303.242 507.57 303.202 507.502 303.149 507.444C299.35 499.403 298.02 486.691 307.165 481.764C309.126 480.691 311.281 480.019 313.504 479.787C315.728 479.554 317.975 479.767 320.115 480.411C322.256 481.055 324.247 482.119 325.972 483.54C327.698 484.961 329.123 486.711 330.166 488.688C335.633 498.798 334.614 506.566 335.749 508.335Z" fill="url(#paint6_linear_28_3635)"/>
<path d="M495.398 492.703C497.577 488.174 501.413 484.657 506.114 482.879C508.644 482.113 511.306 481.884 513.929 482.208C516.555 482.674 519.06 483.66 521.299 485.108C521.625 485.277 522.001 485.323 522.359 485.239C522.717 485.154 523.032 484.944 523.248 484.647C523.464 484.35 523.567 483.985 523.537 483.619C523.507 483.253 523.347 482.909 523.086 482.651C520.732 480.785 517.957 479.525 515.003 478.98C512.049 478.436 509.007 478.624 506.142 479.527C503.278 480.431 500.678 482.023 498.571 484.163C496.465 486.304 494.915 488.929 494.057 491.807C494.057 492.703 494.953 493.373 495.398 492.703Z" fill="url(#paint7_linear_28_3635)"/>
<path d="M546.083 464.123C544.075 460.102 534.918 455.423 531.347 455.423C530.893 455.404 530.439 455.487 530.021 455.667C529.603 455.846 529.23 456.117 528.93 456.46C528.63 456.802 528.411 457.208 528.289 457.646C528.166 458.085 528.144 458.545 528.223 458.993C526.881 458.772 525.323 460.78 526.657 462.789C525.094 463.238 525.319 465.689 526.881 467.033C524.56 468.426 522.088 469.55 519.512 470.383C516.612 471.307 512.146 473.954 513.262 477.749C513.262 477.837 513.297 477.922 513.36 477.985C513.423 478.047 513.507 478.082 513.596 478.082C513.684 478.082 513.769 478.047 513.832 477.985C513.894 477.922 513.929 477.837 513.929 477.749C515.948 471.702 522.651 473.819 528.223 469.488C528.878 470.102 529.475 470.775 530.006 471.499C532.22 473.419 534.805 474.863 537.601 475.741C539.384 476.187 539.812 475.549 537.822 474.178C536.7 473.469 535.717 472.562 534.922 471.499C536.296 472.233 537.83 472.617 539.388 472.616C541.4 472.166 540.954 469.933 540.954 469.933C542.291 470.604 543.633 469.042 542.962 467.479C545.412 467.026 546.754 465.46 546.083 464.123ZM530.902 463.898C533.605 465.339 536.149 467.061 538.492 469.034C536.906 468.856 535.386 468.296 534.064 467.401C532.742 466.507 531.657 465.304 530.902 463.898ZM533.58 458.54C536.491 459.568 539.207 461.078 541.617 463.006C540.024 462.932 538.469 462.49 537.075 461.716C535.681 460.941 534.485 459.854 533.58 458.54Z" fill="url(#paint8_linear_28_3635)"/>
<path d="M517.504 464.344C519.478 460.832 520.199 456.753 519.55 452.777C518.9 448.802 516.919 445.165 513.93 442.463C507.042 436.863 497.2 439.803 490.933 445.142C489.287 446.241 488.004 447.804 487.248 449.633C486.492 451.463 486.297 453.475 486.688 455.415C486.731 455.55 486.821 455.664 486.943 455.736C487.065 455.808 487.209 455.832 487.347 455.804C487.486 455.776 487.609 455.698 487.693 455.585C487.778 455.472 487.817 455.331 487.804 455.191C487.696 448.713 494.975 444.316 500.532 442.688C502.219 442.06 504.027 441.826 505.818 442.004C507.609 442.183 509.336 442.768 510.866 443.716C512.396 444.664 513.689 445.95 514.646 447.474C515.603 448.999 516.199 450.722 516.388 452.512C517.026 456.28 517.026 460.129 516.388 463.898C516.388 464.561 517.073 465.025 517.504 464.344Z" fill="url(#paint9_linear_28_3635)"/>
<path d="M322.795 492.703C324.277 494.679 325.144 501.592 327.485 509.016C327.609 509.331 327.843 509.591 328.143 509.746C328.444 509.901 328.792 509.942 329.12 509.859C329.448 509.777 329.736 509.578 329.928 509.299C330.12 509.021 330.204 508.681 330.164 508.345C329.99 507.482 326.586 492.71 324.364 490.706C323.919 490.343 323.397 490.086 322.837 489.956C322.277 489.826 321.695 489.826 321.136 489.955C320.576 490.085 320.053 490.34 319.607 490.703C319.162 491.066 318.805 491.525 318.564 492.047C318.785 491.822 314.098 488.919 312.09 492.939C312.09 492.939 307.127 490.691 305.837 495.393C304.677 499.627 309.186 504.325 312.982 505.905C313.652 506.126 314.323 505.456 313.652 505.01C304.401 496.672 308.577 493.519 311.419 495.407C311.444 496.685 311.593 497.958 311.865 499.206C312.311 500.323 313.207 501.885 314.544 501.66C314.849 501.666 315.152 501.602 315.429 501.474C315.706 501.346 315.95 501.157 316.143 500.92C316.337 500.684 316.474 500.407 316.545 500.11C316.616 499.813 316.618 499.504 316.552 499.206C315.977 497.528 315.149 495.946 314.098 494.516C315.661 492.283 317.223 494.07 318.118 494.961C318.118 499.533 322.584 502.291 322.584 498.757C322.199 497.157 321.516 495.643 320.573 494.294C320.562 492.257 322.349 492.036 322.795 492.703Z" fill="url(#paint10_linear_28_3635)"/>
<path d="M280.817 480.202C270.098 480.202 261.75 490.287 262.507 496.725C262.494 496.865 262.534 497.006 262.618 497.119C262.703 497.232 262.826 497.311 262.965 497.338C263.103 497.366 263.247 497.342 263.369 497.27C263.49 497.198 263.581 497.084 263.624 496.95C264.81 493.513 266.633 490.331 269 487.572C270.839 485.721 273.103 484.347 275.593 483.569C278.084 482.791 280.727 482.632 283.293 483.106C286.237 483.869 288.883 485.502 290.884 487.793C291.775 488.909 293.563 487.572 292.892 486.23C291.566 484.274 289.758 482.692 287.643 481.636C285.529 480.58 283.178 480.086 280.817 480.202Z" fill="url(#paint11_linear_28_3635)"/>
<path d="M345.125 467.919C340.985 463.932 329.839 465.679 325.028 473.277C324.597 473.959 325.681 475.05 326.369 474.172C328.487 471.603 331.389 469.799 334.631 469.036C337.916 468.569 341.263 468.798 344.455 469.706C345.346 470.152 345.807 468.575 345.125 467.919Z" fill="url(#paint12_linear_28_3635)"/>
<path d="M222.54 192.38C225.385 198.212 231.472 201.536 234.821 207.119C235.046 207.565 235.713 207.34 235.492 206.894C233.825 202.968 231.308 199.46 228.122 196.624C226.623 195.237 225.447 193.539 224.675 191.648C223.904 189.757 223.556 187.72 223.656 185.681C225.686 174.9 244.424 174.9 244.424 188.581C244.424 193.938 240.512 198.607 241.524 203.987C241.774 205.324 244.203 205.103 243.978 203.541C243.253 198.35 247.041 194.221 246.878 187.228C246.901 184.873 246.208 182.566 244.893 180.612C243.577 178.658 241.699 177.149 239.508 176.285C228.706 171.935 217.207 181.45 222.54 192.38Z" fill="url(#paint13_linear_28_3635)"/>
<path d="M244.198 208.68C242.411 208.234 235.712 207.564 233.929 209.797C233.604 210.167 233.425 210.643 233.425 211.136C233.425 211.629 233.604 212.105 233.929 212.475C233.033 214.263 234.82 214.933 234.82 215.154C233.033 219.845 248.233 216.717 245.333 214.038C245.333 214.038 246.449 212.03 244.441 211.584C244.644 211.359 245.985 209.126 244.198 208.68Z" fill="url(#paint14_linear_28_3635)"/>
<path d="M188.821 216.941C191.99 215.798 194.774 213.788 196.858 211.141C196.663 212.008 196.683 212.909 196.917 213.766C197.151 214.622 197.591 215.409 198.199 216.056C201.494 219.239 205.79 211.812 206.46 209.579C207.352 211.812 212.148 215.186 213.384 210.024C214.62 204.862 215.617 198.638 222.084 197.968C223.422 197.747 223.429 195.539 222.084 195.735C220.381 195.912 218.745 196.491 217.309 197.423C215.873 198.354 214.678 199.613 213.823 201.096C213.152 202.434 211.365 209.796 210.248 210.024C209.132 210.253 208.015 207.124 207.57 205.783C207.499 205.542 207.352 205.33 207.15 205.18C206.949 205.029 206.705 204.947 206.453 204.947C206.202 204.947 205.957 205.029 205.756 205.18C205.554 205.33 205.407 205.542 205.337 205.783C204.891 208.065 204.061 210.254 202.882 212.257C202.433 212.928 201.095 214.269 200.2 213.823C198.862 213.153 199.754 209.133 199.979 208.023C200.204 206.914 198.862 205.79 197.967 206.907C196.405 209.14 190.579 216.332 187.473 214.498C183.123 211.96 189.387 193.56 205.561 191.722C210.819 191.583 216.031 192.733 220.743 195.071C221.406 195.314 221.638 194.404 221.413 193.955C217.766 190.77 213.083 189.023 208.24 189.043C196.64 188.532 184.348 198.646 184.123 210.702C183.767 211.429 183.619 212.239 183.696 213.044C183.773 213.849 184.071 214.618 184.557 215.264C185.044 215.91 185.7 216.408 186.452 216.705C187.205 217.001 188.025 217.082 188.821 216.941Z" fill="white" fill-opacity="0.9"/>
<path d="M288.633 185.236C285.439 186.264 282.003 186.264 278.809 185.236C279.483 185.8 280 186.527 280.313 187.349C280.625 188.17 280.721 189.057 280.593 189.927C279.596 194.367 271.893 191.043 270.08 189.477C270.526 191.71 268.743 197.293 264.722 193.943C260.702 190.594 256.236 185.906 250.654 189.256C249.316 189.927 248.192 188.129 249.316 187.469C250.801 186.62 252.466 186.136 254.174 186.059C255.882 185.981 257.585 186.312 259.14 187.023C260.481 187.694 266.285 192.605 267.401 192.16C268.518 191.714 267.604 188.593 266.955 187.023C266.867 186.787 266.857 186.529 266.927 186.287C266.997 186.045 267.144 185.833 267.346 185.682C267.547 185.531 267.792 185.449 268.044 185.449C268.296 185.449 268.541 185.531 268.743 185.682C270.451 187.262 272.411 188.544 274.543 189.477C275.217 189.691 277.221 190.148 277.671 189.256C278.338 187.915 275.213 185.015 274.321 184.344C273.43 183.673 274.104 181.861 275.213 182.111C277.907 182.716 286.617 185.468 288.165 182.111C290.224 177.634 274.39 166.353 260.028 174.296C255.686 177.141 252.158 181.064 249.787 185.682C249.694 185.765 249.58 185.821 249.457 185.843C249.334 185.865 249.207 185.852 249.091 185.805C248.975 185.759 248.874 185.681 248.8 185.581C248.725 185.48 248.681 185.36 248.671 185.236C249.771 180.485 252.646 176.335 256.708 173.636C266.035 166.712 281.72 167.383 288.861 177.21C291.718 179.342 292.562 183.354 288.633 185.236Z" fill="white" fill-opacity="0.9"/>
<path d="M670.012 45.2319C670.067 45.4157 670.185 45.5739 670.347 45.6774C670.508 45.7809 670.701 45.8228 670.891 45.7955C671.081 45.7682 671.254 45.6735 671.38 45.5288C671.505 45.384 671.575 45.1988 671.575 45.0072C671.905 38.2335 671.681 31.4442 670.904 24.7072C670.679 24.2613 669.788 23.8118 669.563 24.4824C667.258 31.235 667.417 38.5855 670.012 45.2319Z" fill="url(#paint15_linear_28_3635)"/>
<path d="M688.988 49.2551C690.217 48.599 705.181 39.8301 706.182 37.6551C706.288 37.4854 706.349 37.2912 706.359 37.0912C706.368 36.8911 706.326 36.6919 706.237 36.5128C706.147 36.3336 706.013 36.1806 705.847 36.0683C705.681 35.956 705.489 35.8882 705.29 35.8716C701.513 35.8716 689.586 45.9165 687.872 47.7036C686.998 48.6026 687.872 49.701 688.988 49.2551Z" fill="url(#paint16_linear_28_3635)"/>
<path d="M217.851 166.481C219.943 169.479 222.257 172.316 224.775 174.967C225.445 175.413 226.783 174.517 226.337 173.85C224.49 170.856 222.399 168.017 220.088 165.364C219.417 164.694 218.522 162.907 217.405 162.685C214.947 161.79 217.18 165.589 217.851 166.481Z" fill="url(#paint17_linear_28_3635)"/>
<path d="M231.696 172.287C233.135 168.151 234.181 163.889 234.821 159.556C234.812 159.349 234.736 159.151 234.605 158.99C234.474 158.83 234.295 158.716 234.094 158.666C233.893 158.616 233.681 158.632 233.49 158.712C233.299 158.792 233.139 158.932 233.034 159.11C231.246 163.363 230.263 167.911 230.134 172.523C230.801 173.4 231.247 172.954 231.696 172.287Z" fill="url(#paint18_linear_28_3635)"/>
<path d="M627.584 236.142C626.341 239.039 625.659 242.146 625.576 245.298C625.576 246.19 626.022 247.085 626.692 246.636C628.063 244.147 629.185 241.53 630.042 238.82C630.933 235.46 628.236 234.804 627.584 236.142Z" fill="url(#paint19_linear_28_3635)"/>
<path d="M638.75 240.39C636.458 242.541 634.502 245.024 632.95 247.756C632.5 248.427 632.5 249.544 633.617 249.322C635.927 247.731 638.028 245.856 639.87 243.74C642.157 241.337 639.866 239.495 638.75 240.39Z" fill="url(#paint20_linear_28_3635)"/>
<path d="M506.801 476.852C509.176 472.305 510.404 467.246 510.375 462.116C510.375 457.886 508.454 455.131 505.014 457.425C504.78 457.014 504.467 456.653 504.094 456.363C503.72 456.072 503.293 455.859 502.836 455.734C502.38 455.61 501.903 455.576 501.434 455.636C500.965 455.696 500.512 455.849 500.102 456.084C499.881 455.638 499.656 455.417 499.431 454.968C497.202 451.843 493.631 455.2 492.511 457.65C491.198 460.982 490.737 464.589 491.17 468.144C491.34 472.73 491.938 477.289 492.957 481.764C492.999 481.898 493.09 482.012 493.212 482.084C493.334 482.156 493.477 482.18 493.616 482.152C493.754 482.125 493.878 482.047 493.962 481.933C494.047 481.82 494.086 481.679 494.073 481.539C493.439 472.03 491.782 463.682 494.073 458.096C494.53 456.983 496.531 454.301 497.648 455.863C498.099 456.433 498.336 457.144 498.318 457.871C497.339 460.511 497.107 463.37 497.648 466.133C498.699 468.764 501.726 465.092 500.548 459.212C500.997 458.317 501.443 457.871 502.114 458.317C502.559 458.542 502.559 459.658 502.781 460.104C502.187 461.315 501.859 462.64 501.821 463.988C501.783 465.336 502.035 466.677 502.559 467.92C502.998 469.04 504.568 468.59 505.014 467.695C505.908 465.425 506.14 462.947 505.684 460.55C505.909 459.883 506.801 458.767 507.247 459.434C509.48 462.783 505.909 471.715 504.122 475.746C503.901 477.076 506.116 478.414 506.801 476.852Z" fill="url(#paint21_linear_28_3635)"/>
<path d="M383.978 388.439C363.881 383.977 346.811 371.373 332.173 357.402C331.717 356.967 331.282 357.627 331.503 358.073C345.357 373.537 363.918 388.617 384.428 391.785C386.603 392.119 385.32 392.583 390.01 371.467C390.373 371.467 460.052 386.297 457.221 373.7C457.018 372.801 456.997 358.069 456.997 358.069C479.62 353.828 472.816 335.496 471.957 323.461C471.957 324.799 481.552 339.531 493.841 351.374C494.747 352.251 503.665 359.635 504.557 358.743C496.047 364.842 486.728 369.722 476.869 373.243C476.202 373.472 476.423 374.581 477.094 374.36C485.684 372.531 493.86 369.123 501.207 364.311C504.129 362.499 510.418 359.138 507.46 357.166C503.369 354.707 499.418 352.023 495.625 349.126C487.356 342.239 487.233 339.437 484.238 325.683C480.612 308.969 479.112 291.864 479.772 274.774C479.772 273.433 477.568 273.433 477.539 274.774C477.155 293.66 479.008 321.536 485.801 339.527C479.746 331.11 474.371 322.225 469.724 312.956C465.803 303.249 462.667 293.243 460.346 283.035C459.081 276.51 460.636 266.755 457.221 254.006C452.059 234.743 437.019 228.425 426.409 232.126C426.278 232.171 426.168 232.262 426.099 232.383C426.03 232.503 426.007 232.644 426.034 232.78C426.062 232.916 426.138 233.038 426.248 233.122C426.358 233.206 426.495 233.248 426.634 233.239C430.845 232.663 435.134 233.254 439.033 234.947C442.932 236.64 446.291 239.371 448.746 242.841C456.982 254.024 457.007 270.975 457.007 271.645C455.338 265.147 452.624 258.963 448.971 253.336C441.206 241.833 433.938 238.321 426.18 237.277C425.51 237.277 425.285 238.393 425.956 238.393C434.49 241.031 441.785 246.662 446.499 254.249C452.128 262.927 463.021 304.934 467.487 315.207C467.933 316.545 471.239 341.307 468.383 346.911C465.432 352.711 458.106 353.603 452.306 355.176C447.393 356.441 442.392 357.336 437.346 357.855C422.586 360.07 407.503 357.57 394.248 350.71C399.403 330.102 407.842 305.594 408.538 280.15C409.328 251.342 403.85 234.152 400.055 226.782C399.83 226.112 398.939 226.561 398.939 227.228C401.527 239.658 406.99 248.514 405.859 277.917C406.671 314.362 385.965 359.269 383.978 388.439ZM454.985 358.743C454.985 358.743 454.314 372.587 454.535 373.704C439.607 378.681 405.315 373.609 390.452 369.462C390.898 367.451 393.802 356.289 394.694 352.715C415.585 364.453 431.991 362.564 454.985 358.732V358.743Z" fill="white" fill-opacity="0.9"/>
<path d="M610.393 448.27C611.955 447.375 613.071 446.258 614.637 445.37C614.904 445.222 615.101 444.974 615.185 444.681C615.269 444.388 615.233 444.073 615.085 443.806C614.937 443.539 614.689 443.342 614.396 443.258C614.102 443.174 613.788 443.21 613.521 443.358C612.18 444.029 607.032 446.461 605.705 447.157C588.824 455.977 459.52 532.233 456.323 533.345C451.389 535.064 446.514 533.251 441.587 532.454C256.995 502.497 260.946 502.779 220.1 498.288C217.903 498.049 205.219 496.976 203.127 496.28C202.457 496.28 202.236 497.172 202.906 497.172C213.622 498.959 293.129 511.309 398.508 528.879C449.685 537.409 449.957 537.579 452.096 537.579C455.977 537.132 459.712 535.837 463.036 533.784C463.388 533.545 599.441 453.744 610.393 448.27Z" fill="white" fill-opacity="0.9"/>
<path d="M176.315 427.503C184.961 434.728 193.353 442.587 201.995 449.616C203.347 450.703 205.337 448.952 204.007 447.608C188.788 433.232 172.268 420.299 154.659 408.976C170.512 395.125 200.878 359.4 201.995 357.624C201.774 357.849 223.879 377.051 227.007 381.071C227.899 381.962 229.907 384.195 231.027 383.304C231.473 383.079 230.803 381.741 230.357 381.292C229.465 379.954 211.144 362.536 202.894 355.17C201.081 353.814 170.222 393.022 150.864 408.758C149.737 409.65 165.741 418.666 176.315 427.503Z" fill="white" fill-opacity="0.9"/>
<path d="M234.15 472.609C240.878 464.757 244.793 462.038 243.307 460.548C242.858 460.102 241.52 460.773 241.074 460.998C239.958 461.889 234.821 468.364 233.034 470.376C231.471 469.48 229.909 468.364 228.347 467.247C227.897 466.801 227.23 467.693 227.676 468.143C228.568 468.81 233.034 473.725 234.15 472.609Z" fill="white" fill-opacity="0.9"/>
<path d="M319 688.53C335.975 694.188 358.084 684.905 360.756 670.22C360.977 668.433 361.452 665.953 360.085 664.42C357.461 661.469 353.611 664.645 350.929 667.548C351.028 666.605 350.792 665.656 350.262 664.869C349.588 664.16 348.713 663.673 347.755 663.474C346.797 663.274 345.801 663.372 344.9 663.753C344.008 664.199 340.213 666.878 340.434 668.219C338.651 663.082 334.634 665.986 332.398 668.886C331.116 670.47 329.28 671.507 327.261 671.786C330.382 663.422 332.553 654.734 333.735 645.885C334.964 638.882 335.19 631.739 334.406 624.672C334.516 624.47 334.573 624.245 334.572 624.015C334.571 623.786 334.512 623.561 334.401 623.36C334.289 623.16 334.129 622.991 333.935 622.869C333.74 622.747 333.518 622.676 333.289 622.664C312.765 622.349 292.39 619.115 272.777 613.061C269.136 612.089 265.558 610.897 262.062 609.49C261.988 609.329 261.864 609.196 261.708 609.11C261.553 609.025 261.374 608.993 261.198 609.018C261.022 609.042 260.859 609.123 260.733 609.248C260.607 609.373 260.525 609.536 260.499 609.711C259.897 613.706 259.524 617.731 259.383 621.768C258.014 636.35 252.94 650.339 244.644 662.408C234.461 611.495 216.303 557.283 201.325 502.085C201.252 501.894 201.11 501.737 200.927 501.645C200.744 501.553 200.533 501.534 200.337 501.59C200.14 501.647 199.972 501.776 199.865 501.95C199.759 502.125 199.722 502.334 199.762 502.535C212.903 560.962 218.71 566.831 233.257 622.664C236.806 636.29 240.178 649.905 243.752 663.525C231.862 680.167 214.027 689.382 202.427 696.795C201.749 697.23 202.427 697.9 202.876 697.687C227.439 686.025 244.176 669.977 251.999 654.593C257.183 644.253 260.437 633.055 261.601 621.547C262.186 618.006 262.41 614.414 262.268 610.828C278.345 618.868 297.115 622.094 314.744 624.001C320.445 624.718 326.192 625.017 331.937 624.897C331.937 656.173 321.287 696.447 291.743 708.406C289.974 709.131 287.948 709.968 286.161 710.639C274.996 708.852 263.834 709.268 252.669 708.181C222.357 705.237 207.509 700.09 199.527 699.481C199.423 699.486 199.324 699.524 199.244 699.589C199.164 699.655 199.107 699.745 199.082 699.845C199.057 699.946 199.064 700.051 199.104 700.147C199.144 700.243 199.213 700.323 199.302 700.376C205.282 703.005 211.592 704.808 218.058 705.734C234.385 709.159 250.964 711.25 267.63 711.987C285.244 712.77 290.525 713.974 304.695 703.501C310.441 699.546 315.31 694.45 319 688.53ZM326.144 674.461C327.693 674.403 329.212 674.015 330.599 673.322C331.986 672.63 333.208 671.648 334.185 670.445C334.852 669.774 335.968 667.545 337.085 667.987C338.201 668.429 338.201 670.666 338.201 671.561C338.199 671.821 338.275 672.075 338.42 672.291C338.565 672.507 338.772 672.674 339.013 672.77C339.254 672.866 339.519 672.888 339.773 672.831C340.026 672.774 340.257 672.643 340.434 672.453C342 670.666 343.109 667.066 345.571 666.425C349.558 665.381 348.087 668.842 348.471 671.561C348.537 671.794 348.672 672.001 348.858 672.156C349.044 672.31 349.272 672.406 349.512 672.43C349.753 672.454 349.995 672.405 350.208 672.289C350.42 672.174 350.593 671.997 350.704 671.782C352.118 669.505 354.122 667.654 356.504 666.425C358.07 665.979 358.291 667.095 358.291 668.433C358.291 673.994 353.281 679.507 348.242 682.723C341.536 686.165 334.121 688.001 326.583 688.084C324.129 688.084 321.896 687.638 319.438 687.413C322.067 683.308 324.312 678.968 326.144 674.45V674.461Z" fill="white" fill-opacity="0.9"/>
<path d="M312.079 648.784C312.968 647.577 313.37 646.079 313.204 644.589C313.038 643.099 312.317 641.726 311.183 640.744C308.283 638.529 304.053 639.475 300.914 640.074C282.332 643.612 271.529 661.911 261.401 675.802C253.288 686.912 239.517 691.433 239.071 692.114C238.625 692.796 245.995 696.355 247.771 696.801C252.549 696.234 257.216 694.955 261.615 693.006C265.795 690.447 269.01 686.803 273.215 684.306C281.745 679.231 292.79 678.828 297.553 674.257C298.453 673.376 299.064 672.241 299.303 671.004C299.542 669.767 299.398 668.487 298.891 667.334C308.744 665.017 310.433 657.184 306.036 653.269C308.429 652.367 310.522 650.814 312.079 648.784ZM263.399 688.529C259.157 691.878 248.438 694.557 248.217 694.782C248.217 694.782 243.972 692.77 243.305 692.324C246.941 690.641 250.454 688.703 253.818 686.524C254.245 686.742 263.399 688.529 263.399 688.529ZM302.476 651.916C302.202 651.971 301.957 652.126 301.791 652.351C301.624 652.576 301.547 652.855 301.575 653.133C301.602 653.412 301.732 653.67 301.94 653.858C302.147 654.046 302.417 654.15 302.697 654.149C307.163 654.595 305.351 659.928 304.263 661.073C301.763 663.289 298.648 664.69 295.331 665.09C295.048 665.148 294.793 665.301 294.611 665.525C294.428 665.749 294.328 666.03 294.328 666.319C294.328 666.608 294.428 666.888 294.611 667.112C294.793 667.336 295.048 667.49 295.331 667.547C297.789 667.975 296.658 671.104 295.331 672.235C290.829 676.081 275.676 676.864 265.41 686.528C264.294 686.303 255.808 685.187 255.583 685.187C261.225 679.704 266.45 673.808 271.214 667.547C279.131 656.169 287.164 645.014 300.914 642.535C303.585 642.053 310.737 640.527 310.513 644.993C310.737 649.437 305.612 650.825 302.476 651.909V651.916Z" fill="white" fill-opacity="0.9"/>
</g>
<defs>
<filter id="filter0_ddddd_28_3635" x="-45" y="-18" width="1005" height="1388" filterUnits="userSpaceOnUse" color-interpolation-filters="sRGB">
<feFlood flood-opacity="0" result="BackgroundImageFix"/>
<feColorMatrix in="SourceAlpha" type="matrix" values="0 0 0 0 0 0 0 0 0 0 0 0 0 0 0 0 0 0 127 0" result="hardAlpha"/>
<feOffset dy="20"/>
<feGaussianBlur stdDeviation="22"/>
<feColorMatrix type="matrix" values="0 0 0 0 0 0 0 0 0 0 0 0 0 0 0 0 0 0 0.49 0"/>
<feBlend mode="normal" in2="BackgroundImageFix" result="effect1_dropShadow_28_3635"/>
<feColorMatrix in="SourceAlpha" type="matrix" values="0 0 0 0 0 0 0 0 0 0 0 0 0 0 0 0 0 0 127 0" result="hardAlpha"/>
<feOffset dy="80"/>
<feGaussianBlur stdDeviation="40"/>
<feColorMatrix type="matrix" values="0 0 0 0 0 0 0 0 0 0 0 0 0 0 0 0 0 0 0.43 0"/>
<feBlend mode="normal" in2="effect1_dropShadow_28_3635" result="effect2_dropShadow_28_3635"/>
<feColorMatrix in="SourceAlpha" type="matrix" values="0 0 0 0 0 0 0 0 0 0 0 0 0 0 0 0 0 0 127 0" result="hardAlpha"/>
<feOffset dy="180"/>
<feGaussianBlur stdDeviation="54"/>
<feColorMatrix type="matrix" values="0 0 0 0 0 0 0 0 0 0 0 0 0 0 0 0 0 0 0.25 0"/>
<feBlend mode="normal" in2="effect2_dropShadow_28_3635" result="effect3_dropShadow_28_3635"/>
<feColorMatrix in="SourceAlpha" type="matrix" values="0 0 0 0 0 0 0 0 0 0 0 0 0 0 0 0 0 0 127 0" result="hardAlpha"/>
<feOffset dy="319"/>
<feGaussianBlur stdDeviation="64"/>
<feColorMatrix type="matrix" values="0 0 0 0 0 0 0 0 0 0 0 0 0 0 0 0 0 0 0.07 0"/>
<feBlend mode="normal" in2="effect3_dropShadow_28_3635" result="effect4_dropShadow_28_3635"/>
<feColorMatrix in="SourceAlpha" type="matrix" values="0 0 0 0 0 0 0 0 0 0 0 0 0 0 0 0 0 0 127 0" result="hardAlpha"/>
<feOffset dy="499"/>
<feGaussianBlur stdDeviation="70"/>
<feColorMatrix type="matrix" values="0 0 0 0 0 0 0 0 0 0 0 0 0 0 0 0 0 0 0.01 0"/>
<feBlend mode="normal" in2="effect4_dropShadow_28_3635" result="effect5_dropShadow_28_3635"/>
<feBlend mode="normal" in="SourceGraphic" in2="effect5_dropShadow_28_3635" result="shape"/>
</filter>
<linearGradient id="paint0_linear_28_3635" x1="659.06" y1="105.974" x2="659.06" y2="127.407" gradientUnits="userSpaceOnUse">
<stop stop-color="#22F02B"/>
<stop offset="1" stop-color="#F6F335"/>
</linearGradient>
<linearGradient id="paint1_linear_28_3635" x1="672.399" y1="49.5518" x2="672.399" y2="103.896" gradientUnits="userSpaceOnUse">
<stop stop-color="#22F02B"/>
<stop offset="1" stop-color="#F6F335"/>
</linearGradient>
<linearGradient id="paint2_linear_28_3635" x1="667.373" y1="66.1025" x2="667.373" y2="102.742" gradientUnits="userSpaceOnUse">
<stop stop-color="#22F02B"/>
<stop offset="1" stop-color="#F6F335"/>
</linearGradient>
<linearGradient id="paint3_linear_28_3635" x1="623.234" y1="238.772" x2="623.234" y2="281.532" gradientUnits="userSpaceOnUse">
<stop stop-color="#22F02B"/>
<stop offset="1" stop-color="#F6F335"/>
</linearGradient>
<linearGradient id="paint4_linear_28_3635" x1="236.377" y1="406.001" x2="236.377" y2="472.987" gradientUnits="userSpaceOnUse">
<stop stop-color="#22F02B"/>
<stop offset="1" stop-color="#F6F335"/>
</linearGradient>
<linearGradient id="paint5_linear_28_3635" x1="234.556" y1="412.32" x2="234.556" y2="432.311" gradientUnits="userSpaceOnUse">
<stop stop-color="#22F02B"/>
<stop offset="1" stop-color="#F6F335"/>
</linearGradient>
<linearGradient id="paint6_linear_28_3635" x1="317.657" y1="476.856" x2="317.657" y2="508.557" gradientUnits="userSpaceOnUse">
<stop stop-color="#22F02B"/>
<stop offset="1" stop-color="#F6F335"/>
</linearGradient>
<linearGradient id="paint7_linear_28_3635" x1="508.8" y1="478.676" x2="508.8" y2="492.975" gradientUnits="userSpaceOnUse">
<stop stop-color="#22F02B"/>
<stop offset="1" stop-color="#F6F335"/>
</linearGradient>
<linearGradient id="paint8_linear_28_3635" x1="529.671" y1="455.42" x2="529.671" y2="478.082" gradientUnits="userSpaceOnUse">
<stop stop-color="#22F02B"/>
<stop offset="1" stop-color="#F6F335"/>
</linearGradient>
<linearGradient id="paint9_linear_28_3635" x1="503.137" y1="439.441" x2="503.137" y2="464.679" gradientUnits="userSpaceOnUse">
<stop stop-color="#22F02B"/>
<stop offset="1" stop-color="#F6F335"/>
</linearGradient>
<linearGradient id="paint10_linear_28_3635" x1="317.913" y1="489.858" x2="317.913" y2="509.901" gradientUnits="userSpaceOnUse">
<stop stop-color="#22F02B"/>
<stop offset="1" stop-color="#F6F335"/>
</linearGradient>
<linearGradient id="paint11_linear_28_3635" x1="277.749" y1="480.186" x2="277.749" y2="497.35" gradientUnits="userSpaceOnUse">
<stop stop-color="#22F02B"/>
<stop offset="1" stop-color="#F6F335"/>
</linearGradient>
<linearGradient id="paint12_linear_28_3635" x1="335.191" y1="465.845" x2="335.191" y2="474.499" gradientUnits="userSpaceOnUse">
<stop stop-color="#22F02B"/>
<stop offset="1" stop-color="#F6F335"/>
</linearGradient>
<linearGradient id="paint13_linear_28_3635" x1="234.038" y1="175.207" x2="234.038" y2="207.361" gradientUnits="userSpaceOnUse">
<stop stop-color="#22F02B"/>
<stop offset="1" stop-color="#F6F335"/>
</linearGradient>
<linearGradient id="paint14_linear_28_3635" x1="239.564" y1="208.227" x2="239.564" y2="217.569" gradientUnits="userSpaceOnUse">
<stop stop-color="#22F02B"/>
<stop offset="1" stop-color="#F6F335"/>
</linearGradient>
<linearGradient id="paint15_linear_28_3635" x1="669.833" y1="24.1411" x2="669.833" y2="45.8036" gradientUnits="userSpaceOnUse">
<stop stop-color="#22F02B"/>
<stop offset="1" stop-color="#F6F335"/>
</linearGradient>
<linearGradient id="paint16_linear_28_3635" x1="696.938" y1="35.8716" x2="696.938" y2="49.3577" gradientUnits="userSpaceOnUse">
<stop stop-color="#22F02B"/>
<stop offset="1" stop-color="#F6F335"/>
</linearGradient>
<linearGradient id="paint17_linear_28_3635" x1="221.353" y1="162.55" x2="221.353" y2="175.087" gradientUnits="userSpaceOnUse">
<stop stop-color="#22F02B"/>
<stop offset="1" stop-color="#F6F335"/>
</linearGradient>
<linearGradient id="paint18_linear_28_3635" x1="232.477" y1="158.638" x2="232.477" y2="173.011" gradientUnits="userSpaceOnUse">
<stop stop-color="#22F02B"/>
<stop offset="1" stop-color="#F6F335"/>
</linearGradient>
<linearGradient id="paint19_linear_28_3635" x1="627.898" y1="235.493" x2="627.898" y2="246.756" gradientUnits="userSpaceOnUse">
<stop stop-color="#22F02B"/>
<stop offset="1" stop-color="#F6F335"/>
</linearGradient>
<linearGradient id="paint20_linear_28_3635" x1="636.759" y1="240.16" x2="636.759" y2="249.351" gradientUnits="userSpaceOnUse">
<stop stop-color="#22F02B"/>
<stop offset="1" stop-color="#F6F335"/>
</linearGradient>
<linearGradient id="paint21_linear_28_3635" x1="500.694" y1="453.704" x2="500.694" y2="482.164" gradientUnits="userSpaceOnUse">
<stop stop-color="#22F02B"/>
<stop offset="1" stop-color="#F6F335"/>
</linearGradient>
</defs>
</svg>
