<svg width="982" height="898" viewBox="0 0 982 898" fill="none" xmlns="http://www.w3.org/2000/svg">
<g filter="url(#filter0_d_16_489)">
<path d="M697.181 244.946C695.029 234.186 689.463 218.644 677.87 214.605C676.587 213.605 675.247 212.681 673.856 211.837C672.353 211.081 662.442 226.827 659.564 233.655C658.171 237.562 657.163 241.595 656.554 245.698C655.673 249.701 655.933 253.872 657.305 257.736C657.633 258.396 658.092 258.982 658.655 259.457C659.218 259.932 659.873 260.287 660.578 260.498C661.284 260.71 662.025 260.775 662.757 260.688C663.489 260.601 664.195 260.365 664.831 259.994C667.872 258.082 670.443 255.51 672.353 252.468C678.264 244.453 683.147 235.727 686.886 226.497C693.906 237.408 693.935 249.724 695.682 253.219C695.682 253.975 697.185 256.984 697.941 256.233C699.439 254.726 697.181 247.2 697.181 244.946Z" fill="#FFFEFE" fill-opacity="0.9"/>
<path d="M815.322 410.489C795.758 405.972 700.946 386.396 673.856 380.389C671.432 379.529 668.898 379.023 666.33 378.886C664.827 378.886 664.827 379.638 663.32 380.389C659.985 382.092 656.444 383.358 652.785 384.154C649.081 385.023 645.3 385.527 641.498 385.657C641.108 385.687 640.743 385.855 640.467 386.132C640.192 386.408 640.024 386.774 639.995 387.164C640.746 392.431 642.253 396.944 643.005 402.211C645.25 417.933 659.163 419.722 669.339 426.304C671.618 427.774 677.617 432.323 673.856 435.333C667.547 440.38 653.683 440.948 649.763 438.343C646.378 436.758 642.85 435.499 639.227 434.582C635.069 434.296 630.993 433.277 627.189 431.572C619.234 427.595 623.048 423.283 621.921 418.778C621.17 417.276 620.419 417.276 618.912 415.769C616.654 413.511 616.654 409.75 615.902 407.491C614.728 402.548 613.972 397.514 613.644 392.444C613.615 392.054 613.447 391.688 613.172 391.412C612.896 391.136 612.53 390.967 612.141 390.937C605.261 392.69 598.165 393.451 591.07 393.195C584.3 393.195 577.525 393.946 570.754 393.946C570.365 393.976 569.998 394.144 569.722 394.42C569.445 394.697 569.277 395.063 569.248 395.453C569.248 406.961 568.758 413.609 571.506 417.276C572.257 419.53 573.764 421.037 573.013 423.295C572.257 427.056 568.496 428.563 565.487 429.314C561.005 431.641 556.937 434.691 553.448 438.343C547.528 443.46 540.166 446.615 532.377 447.371C529.776 447.604 527.164 447.082 524.851 445.869C523.349 444.362 524.851 443.61 525.607 442.104C531.758 434.571 536.823 426.214 540.655 417.276C541.652 413.088 541.906 408.758 541.406 404.482C541.406 400.721 540.655 396.205 540.655 392.444C540.655 389.148 535.179 393.028 506.794 384.918C506.039 372.124 506.039 359.334 505.287 347.292C505.208 346.722 504.944 346.194 504.536 345.789C497.329 344.17 490.046 342.914 482.713 342.024C480.043 342.024 478.585 339.95 472.933 342.78C434.14 355.116 436.553 354.569 406.715 363.095C405.959 363.095 405.959 363.847 405.959 364.602C411.513 403.461 412.419 415.61 418.753 427.807C424 437.918 432.298 440.466 432.298 448.878C432.461 450.116 432.375 451.373 432.045 452.577C431.715 453.781 431.148 454.906 430.377 455.888C429.605 456.869 428.646 457.687 427.555 458.292C426.463 458.898 425.262 459.279 424.021 459.414C422.266 459.676 420.475 459.542 418.779 459.021C417.083 458.5 415.525 457.606 414.22 456.404C404.681 450.949 398.421 441.144 398.421 444.362C396.004 446.131 393.133 447.175 390.144 447.371C386.379 447.371 386.379 441.352 386.379 439.094V423.295C385.154 415.989 376.247 381.296 375.092 374.382C375.092 373.631 374.34 372.879 373.589 373.631C368.666 375.237 363.636 376.493 358.537 377.392C357.786 377.392 357.786 378.143 357.786 378.899C355.311 418.509 351.583 429.882 354.025 432.323C355.675 437.157 356.189 442.307 355.527 447.371C355.527 450.977 354.78 457.172 350.26 457.172C348.757 457.172 347.25 456.42 345.747 457.172C343.489 457.923 341.982 460.933 341.231 462.44C336.739 468.43 328.474 475.229 320.915 475.229C319.171 475.197 317.456 474.778 315.895 474.001C314.333 473.224 312.964 472.109 311.887 470.737C307.268 463.04 321.708 449.585 325.428 442.153C327.22 438.378 328.245 434.284 328.441 430.11C328.813 417.027 328.058 403.936 326.183 390.982C326.153 390.593 325.984 390.227 325.708 389.951C325.432 389.676 325.066 389.508 324.676 389.479C246.138 416.153 208.941 424.655 179.449 435.378C179.124 435.473 178.838 435.671 178.635 435.943C178.432 436.214 178.322 436.544 178.322 436.883C178.322 437.222 178.432 437.552 178.635 437.823C178.838 438.094 179.124 438.292 179.449 438.388C272.554 472.877 342.66 498.146 497.749 539.974C653.03 484.515 740.266 446.395 816.045 413.556C816.825 411.996 816.825 410.489 815.322 410.489ZM494.764 402.211C494.013 402.211 493.028 401.113 494.013 400.709C494.392 400.549 496.716 399.545 492.51 396.944C489.541 395.11 476.404 396.127 469.181 399.202C461.422 403.077 467.572 404.972 468.429 405.221C473.638 406.19 478.955 406.442 484.232 405.972C484.706 405.932 485.178 406.067 485.558 406.352C485.938 406.637 486.2 407.053 486.293 407.519C486.386 407.985 486.303 408.469 486.062 408.878C485.821 409.287 485.437 409.593 484.984 409.737C474.032 415.213 461.532 411.126 459.4 405.972C456.95 400.055 462.451 395.294 468.429 393.183C477.061 389.617 486.703 389.35 495.519 392.431C496.639 392.819 497.675 393.418 498.57 394.195C499 394.571 499.342 395.037 499.57 395.561C499.797 396.085 499.905 396.653 499.885 397.224C499.865 397.795 499.718 398.354 499.454 398.861C499.191 399.368 498.817 399.809 498.362 400.153C497.224 400.941 496.02 401.63 494.764 402.211Z" fill="#FFFEFE" fill-opacity="0.9"/>
<path d="M256.984 198.292C256.772 198.292 256.576 198.333 256.347 198.362C255.976 198.194 255.575 198.101 255.168 198.089C254.76 198.077 254.355 198.146 253.974 198.292C245.228 201.905 236.157 204.677 226.884 206.57C209.615 206.57 196.862 211.082 202.052 211.082C209.577 209.65 217.248 209.143 224.895 209.571C223.945 215.297 223.854 221.133 224.626 226.885C225.332 232.157 226.133 238.172 230.645 240.43C240.421 246.017 251.504 232.214 255.477 221.617C257.779 214.888 258.554 207.731 257.748 200.665C258.666 199.538 258.809 197.684 256.984 198.292Z" fill="#FFFEFE" fill-opacity="0.9"/>
<path d="M255.478 187.005C253.975 187.005 254.726 191.497 256.233 195.283C259.197 204.068 259.197 213.583 256.233 222.369C253.028 229.813 243.439 240.43 237.42 241.933C231.401 243.436 232.152 248.708 241.181 247.956C250.21 247.205 262.252 245.698 262.252 245.698C262.252 245.698 290.094 226.134 274.291 188.529L255.478 187.005Z" fill="url(#paint0_linear_16_489)"/>
<path d="M665.58 199.795C657.523 206.738 650.881 215.169 646.016 224.627C641.642 233.725 639.241 246.449 639.997 247.956C646.117 253.247 652.66 258.027 659.561 262.248C661.819 263 663.322 260.741 661.819 258.483C653.272 248.875 663.452 229.739 670.096 218.603C673.493 213.29 678.152 208.9 683.658 205.826C685.144 204.311 665.58 199.043 665.58 199.795Z" fill="url(#paint1_linear_16_489)"/>
<path d="M503.797 88.4288C498.32 97.9853 492.025 107.049 484.984 115.519C481.974 117.777 484.984 121.538 481.974 124.548C481.223 125.299 469.181 125.299 471.439 129.064C472.946 132.074 477.458 141.854 478.965 141.102C493.257 136.586 507.55 115.519 509.816 110.251C510.567 106.49 503.797 86.9261 503.797 88.4288Z" fill="url(#paint2_linear_16_489)"/>
<path d="M542.169 182.489C541.819 174.895 542.58 167.29 544.427 159.915C542.169 157.657 542.924 153.896 542.169 150.887C530.114 157.641 525.622 171.202 525.622 183.241C525.624 190.573 526.38 197.885 527.876 205.063C529.461 212.573 530.2 220.099 531.641 227.637C533.217 235.902 535.402 253.22 536.153 253.976C540.67 259.243 545.186 265.263 549.699 271.282C550.45 272.789 552.68 272.776 553.464 270.53C556.359 262.212 562.492 241.182 561.741 239.679C552.373 220.956 544.353 203.16 542.169 182.489Z" fill="url(#paint3_linear_16_489)"/>
<path d="M590.331 259.243C578.783 224.602 590.519 185.024 569.26 153.14C566.886 156.713 564.108 160.002 560.983 162.941C564.347 177.746 565.864 192.91 565.499 208.088C565.499 221.633 567.002 251.733 567.757 252.484C573.025 260.01 577.558 268.288 582.805 275.814C583.557 277.316 586.566 276.565 586.566 275.058C586.566 270.53 591.083 259.994 590.331 259.243Z" fill="url(#paint4_linear_16_489)"/>
<path d="M371.36 205.063C368.228 189.407 360.612 180.631 356.312 173.461C353.631 170.507 351.353 167.211 349.537 163.66C348.786 161.402 349.537 158.392 348.786 156.138C348.034 154.631 345.776 153.88 345.021 152.373C344.269 151.622 342.767 152.373 342.011 153.125C330.986 170.251 343.743 193.062 348.786 207.305C350.954 213.324 351.726 219.757 351.044 226.118C350.811 233.196 349.012 240.134 345.776 246.433C345.313 254.717 345.564 263.025 346.528 271.265C346.528 272.772 348.034 273.524 349.537 272.772C357.579 265.242 365.12 257.194 372.111 248.679C374.267 241.354 375.282 233.74 375.121 226.106C373.618 219.36 372.866 212.589 371.36 205.063Z" fill="url(#paint5_linear_16_489)"/>
<path d="M439.081 225.378C426.197 216.178 421.722 217.546 408.985 200.55C394.881 181.733 385.407 159.413 372.866 153.148C369.101 150.894 364.589 158.416 366.843 161.426C369.097 164.435 372.111 166.694 374.369 169.703C378.496 176.526 382.263 183.559 385.656 190.774C389.58 198.214 394.06 204.997 398.45 212.597C407.368 228.041 416.148 234.803 433.062 244.199C433.813 244.955 443.597 241.19 447.354 240.438C448.861 239.687 449.612 238.18 448.11 236.677C445.856 233.655 439.836 226.134 439.081 225.378Z" fill="url(#paint6_linear_16_489)"/>
<path d="M158.408 513.579C180.793 531.678 204.712 547.793 229.894 561.74C257.401 576.931 301.822 596.54 331.481 604.617C339.619 606.975 347.918 608.736 356.313 609.885C358.567 609.885 359.322 607.627 357.064 606.875C353.299 606.124 350.289 604.617 346.528 603.866C342.768 603.114 339.758 601.607 335.993 600.856C287.988 587.599 242.306 567.042 200.546 539.905C186.87 531.073 172.704 522.595 159.915 512.815C159.878 512.695 159.816 512.585 159.733 512.492C159.649 512.399 159.546 512.325 159.431 512.276C159.316 512.227 159.191 512.203 159.066 512.207C158.941 512.212 158.818 512.243 158.707 512.3C158.595 512.356 158.497 512.437 158.42 512.535C158.343 512.633 158.288 512.748 158.259 512.87C158.231 512.991 158.229 513.118 158.255 513.241C158.281 513.363 158.333 513.478 158.408 513.579Z" fill="#FFFEFE" fill-opacity="0.9"/>
<path d="M354.806 722.769C425.105 734.485 554.9 774.071 621.935 798.768C622.687 798.768 622.687 799.519 623.442 799.519C623.541 799.517 623.64 799.535 623.732 799.572C623.824 799.609 623.908 799.664 623.978 799.734C624.049 799.805 624.104 799.888 624.141 799.981C624.178 800.073 624.196 800.171 624.194 800.271H624.945C627.954 801.777 630.213 797.261 627.203 796.51C581.974 775.226 400.187 726.273 357.816 722.014C356.516 722.13 355.21 721.869 354.055 721.262C353.3 720.511 353.3 722.014 354.806 722.769Z" fill="#FFFEFE" fill-opacity="0.9"/>
<path d="M115.517 674.616C175.296 674.616 244.381 684.67 253.974 687.41C259.993 688.162 265.26 689.668 271.28 690.42C273.538 690.42 275.028 687.459 272.031 686.659C255.791 682.31 188.584 673.8 150.129 673.114C138.091 672.897 126.804 673.114 114.766 673.114C114.766 673.106 114.002 674.616 115.517 674.616Z" fill="#FFFEFE" fill-opacity="0.9"/>
<path d="M149.379 509.066C133.649 514.963 106.502 542.902 101.222 553.462C99.2008 556.043 97.4366 558.816 95.9539 561.74C95.2026 563.994 97.4567 566.231 98.9635 563.994C100.462 561.316 102.227 558.796 104.231 556.472C106.003 553.784 108.018 551.265 110.25 548.946C118.233 539.175 127.044 530.111 136.585 521.856C141.853 518.095 147.121 514.334 151.637 510.569C150.886 509.817 150.886 509.066 149.379 509.066Z" fill="#FFFEFE" fill-opacity="0.9"/>
<path d="M95.2188 565.5C125.845 584.639 201.338 612.722 250.981 618.925C251.269 618.907 251.539 618.781 251.737 618.571C251.935 618.361 252.045 618.084 252.045 617.796C252.045 617.507 251.935 617.23 251.737 617.02C251.539 616.81 251.269 616.684 250.981 616.667C230.171 612.698 209.576 607.676 189.275 601.619C147.063 589.335 106.751 568.293 96.7216 563.993C95.2188 562.49 93.6957 564.769 95.2188 565.5Z" fill="#FFFEFE" fill-opacity="0.9"/>
<path d="M98.2136 574.528C89.1809 585.815 86.9267 600.112 86.1713 614.412C85.326 622.036 84.6155 645.259 86.9267 655.044C88.3578 662.332 91.7377 669.096 96.7068 674.616C96.8938 674.855 97.1294 675.051 97.3981 675.193C97.6667 675.334 97.9622 675.416 98.2651 675.435C98.568 675.453 98.8714 675.407 99.1551 675.299C99.4388 675.192 99.6965 675.025 99.9111 674.811C100.126 674.596 100.292 674.338 100.4 674.055C100.507 673.771 100.553 673.468 100.535 673.165C100.517 672.862 100.434 672.566 100.293 672.298C100.152 672.029 99.9554 671.793 99.7164 671.606C91.4391 661.826 89.9363 649.033 89.9363 636.994C89.9363 618.014 89.4626 592.451 99.7164 576.043C100.468 574.528 98.965 573.777 98.2136 574.528Z" fill="#FFFEFE" fill-opacity="0.9"/>
<path d="M699.441 620.432C697.498 609.063 692.565 598.415 685.148 589.581C680.706 585.139 675.121 582.015 669.011 580.554C662.902 579.093 656.507 579.352 650.536 581.304C649.781 581.304 648.278 582.055 647.523 582.055C592.746 594.575 517.396 614.662 433.067 616.667C431.565 616.704 431.565 618.174 433.067 618.926C510.316 623.009 615.483 593.416 633.977 590.341C620.359 603.959 613.204 620.539 605.393 637.747C604.72 640.375 603.708 642.905 602.383 645.273C555.863 652.762 508.79 656.285 461.673 655.804C447.38 655.804 433.827 655.804 419.53 655.053C418.028 655.053 418.028 656.56 419.53 656.56C466.626 660.556 513.996 660.051 560.996 655.053C589.369 651.876 594.126 651.59 603.135 649.785C604.641 649.034 605.393 646.775 603.89 646.024C609.355 631.348 616.689 617.437 625.712 604.637C632.348 594.678 640.217 587.303 652.047 585.824C657.463 584.32 663.186 584.32 668.602 585.824C678.402 588.834 684.36 597.883 688.166 606.895C711.936 663.142 667.217 796.519 627.215 796.519C617.415 796.519 611.526 786.718 609.158 779.213C606.264 770.211 604.741 760.826 604.641 751.371C603.923 718.595 611.7 686.191 627.215 657.311C632.418 649.511 641.099 636.995 650.544 636.995C661.076 635.488 666.503 646.751 667.85 655.053C670.868 673.665 663.465 689.277 660.324 698.698C645.277 697.946 630.241 696.064 615.177 695.688C615.023 695.679 614.869 695.701 614.724 695.754C614.579 695.806 614.446 695.888 614.333 695.994C614.221 696.099 614.132 696.227 614.071 696.369C614.009 696.51 613.978 696.663 613.978 696.817C613.978 696.971 614.009 697.124 614.071 697.266C614.132 697.407 614.221 697.535 614.333 697.641C614.446 697.746 614.579 697.828 614.724 697.881C614.869 697.933 615.023 697.955 615.177 697.946C630.225 699.449 645.277 700.956 661.076 702.438C662.583 703.194 664.085 703.945 664.841 701.687C669.74 691.519 672.796 680.564 673.87 669.329C674.572 659.528 673.825 647.547 667.095 639.233C664.226 635.241 659.902 632.538 655.057 631.707H644.521C640.76 631.707 636.999 632.458 633.234 632.458C626.538 633.706 619.725 634.212 612.919 633.965C611.412 633.965 611.412 635.468 612.919 635.468C619.685 635.844 626.468 635.844 633.234 635.468C635.518 635.59 637.807 635.337 640.009 634.717H639.253C630.338 641.92 623.356 651.23 618.938 661.807C608.707 683.62 602.341 707.044 600.125 731.035C598.912 741.534 598.912 752.138 600.125 762.638C601.071 772.81 604.431 782.609 609.925 791.222C619.089 803.82 635.974 806.442 655.824 783.7C669.512 768.02 677.692 748.349 684.409 729.52C692.826 706.017 697.891 681.446 699.457 656.531C702.315 644.667 702.309 632.294 699.441 620.432Z" fill="#FFFEFE" fill-opacity="0.9"/>
<path d="M676.866 484.234C676.866 482.727 675.359 481.975 673.856 481.975C663.676 486.5 509.093 543.286 497.774 548.946C266.466 477.19 283.343 481.975 281.06 481.975C280.672 482.005 280.307 482.173 280.031 482.449C279.756 482.725 279.588 483.09 279.558 483.478C279.182 510.577 279.558 572.271 280.309 572.271C290.275 577.055 300.588 581.081 311.16 584.313C326.212 588.968 351.75 597.164 363.838 599.361C366.196 598.953 368.48 598.191 370.612 597.103C373.622 596.351 376.631 596.351 379.641 595.6C394.795 594.085 426.883 604.788 454.888 606.887C475.629 608.443 508.489 602.75 528.633 598.61C580.396 587.964 588.922 586.547 649.028 571.519C661.066 568.51 676.87 573.026 676.87 570.768C679.124 542.175 677.241 512.835 676.866 484.234Z" fill="#FFFEFE" fill-opacity="0.9"/>
<path d="M548.944 124.563C544.401 133.217 541.589 142.674 540.667 152.405C540.667 160.254 542.803 162.157 548.944 163.692C551.625 164.558 554.408 165.064 557.222 165.199C566.773 165.199 570.183 157.922 572.269 148.644C573.426 144.974 574.183 141.19 574.528 137.357C574.464 137.131 574.346 136.925 574.184 136.755C574.022 136.585 573.821 136.458 573.598 136.383C573.376 136.309 573.138 136.29 572.907 136.328C572.675 136.366 572.456 136.46 572.269 136.602C567.818 145.508 567.778 160.156 558.724 162.189C555.697 162.653 552.603 162.394 549.696 161.434C543.779 159.955 540.904 158.886 543.677 147.141C545.269 140.391 546.686 132.849 548.944 126.074C550.447 124.563 549.467 123.559 548.944 124.563Z" fill="#FFFEFE" fill-opacity="0.9"/>
<path d="M536.151 135.083C535.238 136.269 534.742 137.724 534.742 139.221C534.742 140.719 535.238 142.174 536.151 143.36C536.473 144.242 537.12 144.968 537.96 145.387C538.8 145.807 539.769 145.89 540.668 145.618C541.419 145.618 541.419 144.863 541.419 144.111C538.871 141.563 537.282 140.412 537.658 138.092C537.754 137.327 538.102 136.616 538.647 136.071C539.192 135.526 539.903 135.178 540.668 135.083C542.297 135.083 540.231 131.003 536.151 135.083Z" fill="#FFFEFE" fill-opacity="0.9"/>
<path d="M574.529 150.13C579.021 152.38 583.362 147.586 581.304 142.608C580.823 141.011 579.743 139.662 578.29 138.843C576.783 138.174 576.498 139.827 576.788 140.35C577.436 141.197 577.904 142.169 578.163 143.204C578.421 144.239 578.465 145.317 578.29 146.369C577.939 147.061 577.4 147.64 576.735 148.039C576.069 148.439 575.305 148.642 574.529 148.627C574.428 148.725 574.347 148.841 574.292 148.97C574.237 149.1 574.209 149.238 574.209 149.379C574.209 149.519 574.237 149.658 574.292 149.787C574.347 149.916 574.428 150.033 574.529 150.13Z" fill="#FFFEFE" fill-opacity="0.9"/>
<path d="M476.708 139.6C481.804 148.743 487.857 157.319 494.765 165.183C506.101 179.19 507.363 179.185 509.058 181.738C510.944 184.126 513.236 186.163 515.828 187.757C516.58 187.757 517.335 187.757 517.335 187.005C515.551 181.66 500.474 167.057 497.771 163.676C490.996 156.154 484.977 147.122 478.203 139.583C478.105 139.484 477.988 139.405 477.859 139.352C477.73 139.299 477.591 139.272 477.452 139.273C477.312 139.275 477.174 139.305 477.047 139.361C476.919 139.417 476.804 139.498 476.708 139.6Z" fill="#FFFEFE" fill-opacity="0.9"/>
<path d="M512.827 188.508C510.569 211.082 510.569 234.411 510.569 257.737C510.569 297.853 509.65 356.187 512.075 374.371C512.075 374.67 512.194 374.956 512.406 375.168C512.617 375.379 512.904 375.498 513.203 375.498C513.501 375.498 513.788 375.379 513.999 375.168C514.211 374.956 514.33 374.67 514.33 374.371C515.085 364.57 514.33 354.055 514.33 344.271C514.33 331.481 515.085 199.795 515.085 188.508C513.58 187.757 512.827 187.757 512.827 188.508Z" fill="#FFFEFE" fill-opacity="0.9"/>
<path d="M607.636 226.886C613.549 255.748 642.052 330.117 646.764 343.52C649.645 352.538 653.166 361.338 657.3 369.854C658.08 371.349 659.558 369.854 659.558 369.103C653.339 346.301 651.799 347.46 641.497 316.425C632.676 289.882 620.511 261.232 609.894 226.882C609.367 225.179 607.383 225.648 607.636 226.886Z" fill="#FFFEFE" fill-opacity="0.9"/>
<path d="M497.778 47.0418C496.68 48.9815 495.871 50.5823 494.013 49.3C493.866 49.198 481.354 36.6411 481.224 36.5063C480.468 35.7549 479.86 34.5217 478.21 34.2522C477.054 34.0603 476.029 35.2404 476.654 36.102C478.014 37.9886 487.031 46.3926 489.183 48.5446C490.689 50.0514 492.948 53.061 495.206 53.061C497.464 53.061 498.665 50.0922 499.289 47.7973C499.542 46.8132 498.301 46.1149 497.778 47.0418Z" fill="#FFFEFE" fill-opacity="0.9"/>
<path d="M468.43 41.7736C474.008 44.7995 473.988 47.0413 475.956 47.0413C476.707 47.0413 477.34 46.392 476.707 45.5386C474.65 43.1225 471.824 41.4875 468.704 40.9078C468.599 40.8991 468.493 40.9264 468.406 40.9852C468.318 41.044 468.253 41.1309 468.221 41.2315C468.19 41.3321 468.193 41.4406 468.231 41.5391C468.269 41.6376 468.339 41.7202 468.43 41.7736Z" fill="#FFFEFE" fill-opacity="0.9"/>
<path d="M462.412 52.309C464.784 52.6588 467.076 53.4232 469.182 54.5672C470.861 55.3309 471.416 56.2006 472.192 55.3186C472.968 54.4366 471.347 53.04 469.934 52.309C467.67 50.9682 465.017 50.4382 462.412 50.8063C461.166 50.8185 461.15 52.3294 462.412 52.309Z" fill="#FFFEFE" fill-opacity="0.9"/>
<path d="M460.902 64.3473C472.398 68.4962 479.25 68.7453 482.725 73.3801C484.77 76.4832 486.533 79.7631 487.993 83.1806C489.891 86.9103 492.159 90.4399 494.763 93.7161C495.519 94.4675 497.021 93.7161 497.021 92.2093C495.553 88.0765 493.793 84.0536 491.753 80.171C488.597 72.2735 484.811 67.5121 475.954 65.8786C471.462 65.0619 466.93 63.5919 462.409 62.8691C460.131 62.4934 460.077 64.0533 460.902 64.3473Z" fill="#FFFEFE" fill-opacity="0.9"/>
<path d="M564.748 128.312C559.48 125.298 556.634 118.103 551.203 116.269C549.91 115.652 548.496 115.332 547.064 115.332C545.632 115.332 544.218 115.652 542.925 116.269C541.769 116.981 540.816 117.978 540.156 119.164C539.497 120.351 539.154 121.687 539.16 123.044C539.16 124.547 540.667 124.547 541.418 123.044C541.931 122.067 542.655 121.217 543.538 120.555C544.421 119.894 545.441 119.438 546.523 119.222C547.605 119.005 548.722 119.034 549.791 119.304C550.861 119.575 551.857 120.081 552.705 120.786C555.821 123.338 558.541 128.263 564.748 129.815C564.748 129.815 565.703 128.737 564.748 128.312Z" fill="#FFFEFE" fill-opacity="0.9"/>
<path d="M545.935 111.003C548.332 110.267 550.865 110.089 553.342 110.48C555.819 110.871 558.173 111.822 560.227 113.261C566.307 117.316 566.638 125.299 568.504 125.299C568.894 125.27 569.26 125.102 569.536 124.827C569.813 124.551 569.981 124.186 570.011 123.796C570.011 119.304 564.425 113.302 560.978 111.003C558.677 109.417 555.978 108.507 553.186 108.374C550.394 108.242 547.621 108.892 545.179 110.251C545.179 110.251 545.183 111.758 545.935 111.003Z" fill="#FFFEFE" fill-opacity="0.9"/>
<path d="M573.025 111.758C574.562 113.91 575.568 116.395 575.96 119.011C576.352 121.627 576.119 124.298 575.279 126.806C575.279 127.557 573.025 132.074 576.034 131.322C579.044 129.815 579.42 124.605 579.044 120.787C578.489 117.16 576.924 113.764 574.528 110.986C573.776 110.272 572.584 111.19 573.025 111.758Z" fill="#FFFEFE" fill-opacity="0.9"/>
<path d="M560.233 145.619C556.707 145.47 553.174 145.663 549.685 146.194C548.203 146.435 548.195 147.877 549.685 147.877H553.45C553.344 148.874 553.495 149.881 553.89 150.803C554.285 151.725 554.909 152.529 555.704 153.14C559.469 154.647 561.727 151.638 561.727 147.877C562.491 146.37 561.74 145.619 560.233 145.619ZM557.223 150.11C556.938 149.814 556.723 149.458 556.593 149.068C556.463 148.678 556.421 148.264 556.472 147.856H559.482C559.482 150.482 559.11 150.131 557.223 150.131V150.11Z" fill="#FFFEFE" fill-opacity="0.9"/>
<path d="M557.61 141.277C557.725 141.224 557.827 141.147 557.91 141.052C557.993 140.956 558.055 140.844 558.091 140.722C558.778 138.647 559.243 136.505 559.48 134.331C559.357 132.653 557.81 133.629 557.222 135.083C556.589 136.643 556.311 137.557 555.715 138.844C555.457 139.574 555.457 140.371 555.715 141.102C555.96 141.747 556.389 141.841 557.61 141.277Z" fill="#FFFEFE" fill-opacity="0.9"/>
<path d="M603.877 217.101C615.386 227.992 627.441 238.291 639.996 247.957C644.19 250.75 647.755 254.809 652.034 256.234C652.786 256.234 653.541 255.478 652.786 254.727C651.267 252.448 605.792 215.933 605.38 215.599C603.877 215.599 603.122 216.35 603.877 217.101Z" fill="#FFFEFE" fill-opacity="0.9"/>
<path d="M706.964 199.794C702.031 200.452 688.706 203.788 684.615 202.796C640.986 192.199 627.919 173.272 601.617 162.172C594.435 159.05 586.826 157.021 579.043 156.153C576.785 156.905 576.785 157.656 577.536 157.656C613.414 163.32 628.519 188.609 668.815 202.044C686.007 207.761 688.09 207.496 697.18 205.062C700.177 204.245 703.203 203.571 706.213 202.804C709.165 202.087 712.211 201.833 715.241 202.052C716.601 202.052 716.164 198.573 706.964 199.794Z" fill="#FFFEFE" fill-opacity="0.9"/>
<path d="M712.487 208.705C712.519 208.651 712.537 208.59 712.542 208.527C712.546 208.464 712.535 208.402 712.511 208.343C712.487 208.285 712.45 208.234 712.402 208.192C712.355 208.151 712.299 208.121 712.238 208.105C711.164 207.844 710.421 209.33 709.976 210.331C706.08 219.253 718.351 222.471 722.769 226.885C725.812 229.927 724.811 229.878 725.628 230.205C725.805 230.296 726.003 230.339 726.202 230.33C726.4 230.32 726.593 230.259 726.761 230.151C726.928 230.044 727.065 229.894 727.156 229.717C727.248 229.54 727.291 229.342 727.282 229.143C727.282 227.751 723.778 223.688 723.361 223.279C718.988 219.041 714.664 220.486 712.066 214.21C711.753 213.313 711.628 212.361 711.701 211.414C711.773 210.466 712.041 209.544 712.487 208.705Z" fill="#FFFEFE" fill-opacity="0.9"/>
<path d="M711.476 229.894C714.49 232.904 718.284 236.636 721.277 239.695C721.779 240.209 724.372 241.018 722.784 238.188C720.1 234.328 716.473 231.22 712.248 229.159C711.468 228.718 710.725 229.143 711.476 229.894Z" fill="#FFFEFE" fill-opacity="0.9"/>
<path d="M708.467 246.449C709.284 248.082 711.036 248.968 710.725 244.946C710.611 243.443 706.964 234.411 704.706 237.42C705.656 240.548 706.916 243.572 708.467 246.449Z" fill="#FFFEFE" fill-opacity="0.9"/>
<path d="M429.302 614.413C426 612.459 422.459 610.941 418.767 609.897C415.125 608.306 411.348 607.047 407.48 606.136C399.935 603.728 392.074 602.459 384.155 602.371C368.066 602.371 340.461 618.232 329.974 639.245C329.223 639.997 330.726 640.748 331.481 639.997C339.586 628.752 350.134 619.49 362.332 612.907C368.281 609.37 374.989 607.306 381.896 606.887C389.301 606.352 396.736 607.378 403.719 609.897C409.62 611.501 415.402 613.512 421.025 615.916C406.847 617.688 402.188 621.633 393.935 624.945C389.927 626.674 386.335 629.24 383.399 632.471C382.648 633.978 383.399 636.232 384.906 635.48C389.158 633.678 393.196 631.407 396.944 628.71C399.954 627.203 402.931 625.631 405.973 624.194C412.678 621.033 421.025 620.433 427.795 618.174H428.551C430.07 617.423 430.805 615.916 429.302 614.413Z" fill="url(#paint7_linear_16_489)"/>
<path d="M412.748 640.748C409.688 638.396 406.135 636.768 402.355 635.985C398.576 635.203 394.668 635.287 390.926 636.232C378.459 638.12 366.372 641.98 355.117 647.665C353.344 645.447 351.131 643.619 348.618 642.297C346.104 640.975 343.343 640.187 340.51 639.984C334.23 640.023 328.142 642.15 323.204 646.032C313.404 654.273 306.65 672.371 320.946 680.644C323.701 682.045 326.737 682.804 329.827 682.864C332.917 682.924 335.98 682.284 338.787 680.991C344.435 692.597 354.378 701.842 363.836 709.984C369.091 714.513 375.139 722.096 383.4 720.52C390.938 719.078 396.279 710.801 400.71 704.717C410.454 692.004 416.681 676.952 418.767 661.072C419.502 653.538 418.767 645.264 412.748 640.748ZM400.71 696.431C398.105 699.902 393.16 709.241 387.165 713.737C385.85 714.94 384.171 715.667 382.395 715.804C380.619 715.941 378.848 715.479 377.364 714.493C374.426 712.463 371.657 710.198 369.087 707.718C357.049 697.183 346.362 686.729 338.987 672.355C338.22 670.856 335.978 671.599 335.978 673.857C336.386 675.218 336.85 676.54 337.37 677.822C335.763 678.613 334.007 679.057 332.217 679.125C329.684 679.269 327.145 679.015 324.691 678.374C321.806 677.464 319.396 675.453 317.987 672.776C316.578 670.099 316.282 666.975 317.165 664.081C321.122 646.624 339.477 637.457 353.851 648.29C348.766 650.653 344.021 653.687 339.743 657.311C338.987 658.818 339.722 660.288 341.246 659.569C354.456 653.338 353.855 650.365 383.384 641.508C390.215 639.383 397.49 639.124 404.455 640.756C407.902 641.587 410.879 643.752 412.732 646.775C413.963 649.888 414.477 653.238 414.235 656.576C414.251 670.848 408.232 684.393 400.71 696.431Z" fill="url(#paint8_linear_16_489)"/>
<path d="M327.716 639.996C323.955 633.977 320.121 628.007 315.678 621.935C308.904 612.681 301.794 598.507 289.339 601.619C283.794 603.615 279.219 607.652 276.55 612.906C270.141 622.798 265.554 633.756 263.005 645.264C260.82 655.812 259.244 670.096 269.024 677.618C274.291 682.134 280.311 681.383 287.085 679.125C293.856 676.115 300.63 673.105 307.401 669.324C309.659 667.821 307.401 664.832 305.143 665.563C291.528 671.399 282.013 678.978 273.54 675.364C263.74 670.096 265.055 657.265 266.766 648.273C268.717 638.002 272.821 628.26 278.808 619.689C280.151 617.567 281.66 615.554 283.32 613.67C284.66 611.334 286.45 609.288 288.588 607.65C293.104 604.641 299.123 607.65 302.133 611.411C309.688 618.97 317.242 634.577 326.226 642.267C326.965 643.006 328.472 641.499 327.716 639.996Z" fill="url(#paint9_linear_16_489)"/>
<path d="M308.149 670.847C302.6 674.194 297.95 678.843 294.604 684.392C290.133 690.182 284.805 695.256 278.805 699.44C270.222 705.852 260.869 711.161 250.963 715.244C247.273 716.28 243.731 717.79 240.428 719.735C239.676 720.491 239.676 721.242 240.428 721.242C240.428 721.994 240.428 722.749 241.179 722.749C246.739 724.65 252.624 725.416 258.485 725.003C263.013 725.128 267.544 724.876 272.03 724.252C265.876 731.639 263.581 738.332 256.231 750.591C253.904 753.509 252.12 756.822 250.963 760.371C250.208 761.878 252.466 762.629 253.973 761.878C256.646 759.369 258.706 756.278 259.992 752.845C266.407 742.154 271.798 730.504 278.805 723.5C279.165 723.219 279.425 722.828 279.544 722.386C279.663 721.945 279.636 721.477 279.466 721.052C279.296 720.627 278.993 720.269 278.602 720.032C278.211 719.795 277.753 719.69 277.298 719.735C268.305 720.74 259.243 720.992 250.208 720.491C251.715 719.735 252.466 719.735 253.973 718.984C256.982 717.481 260.776 716.04 263.753 714.472C274.803 708.64 290.831 697.676 298.369 687.382C302.008 681.638 306.3 676.335 311.159 671.578C310.42 671.599 308.901 670.096 308.149 670.847Z" fill="url(#paint10_linear_16_489)"/>
<path d="M348.034 713.002C346.158 704.115 343.121 695.513 339.001 687.418C338.814 687.277 338.596 687.184 338.365 687.146C338.134 687.108 337.898 687.127 337.676 687.201C337.454 687.275 337.254 687.402 337.092 687.57C336.93 687.739 336.811 687.945 336.747 688.17C338.94 695.331 340.698 702.618 342.01 709.992C343.517 717.518 344.269 725.04 345.02 732.566C345.161 734.197 344.967 735.839 344.45 737.392C343.932 738.945 343.102 740.375 342.01 741.595C335.068 748.537 325.292 755.605 317.917 761.914C314.472 764.18 311.197 766.694 308.117 769.436C306.614 770.943 304.356 771.694 302.849 773.201C302.75 773.199 302.651 773.217 302.559 773.254C302.467 773.291 302.383 773.346 302.313 773.416C302.243 773.487 302.187 773.57 302.15 773.662C302.113 773.755 302.096 773.853 302.098 773.953C302.098 755.038 302.306 753.302 301.346 751.379C301.346 750.627 301.346 749.872 299.84 749.121C298.333 748.369 296.83 749.121 295.327 749.121C293.825 749.121 293.069 749.872 291.562 749.872C288.553 750.627 285.543 750.627 282.534 751.379C278.017 752.13 273.505 752.13 269.74 752.882C275.763 749.121 281.782 744.604 287.801 740.843C293.82 737.082 299.787 732.497 305.859 728.05C311.22 724.27 315.406 719.054 317.934 713.002C320.862 705.443 320.192 697.954 320.943 690.428C320.943 689.676 319.437 688.17 319.437 689.676C314.606 700.543 319.645 712.544 302.13 725.04C295.723 730.532 272.096 744.89 263.745 751.379C263.438 751.698 263.21 752.084 263.079 752.507C262.948 752.93 262.918 753.378 262.991 753.815C263.065 754.252 263.24 754.665 263.502 755.022C263.764 755.379 264.106 755.67 264.501 755.871C270.749 756.596 277.061 756.596 283.309 755.871C286.319 755.871 289.329 755.119 291.587 755.119C293.094 755.119 294.596 754.368 296.103 754.368H297.606V778.461C297.636 778.85 297.805 779.216 298.081 779.491C298.357 779.767 298.723 779.934 299.113 779.964H300.62C302.122 779.212 303.629 779.212 305.132 778.461C308.807 776.631 318.608 769.861 320.184 768.66C326.203 764.144 332.222 758.86 338.241 754.368C343.509 749.852 349.369 745.319 350.279 737.813C350.947 729.475 350.187 721.084 348.034 713.002Z" fill="url(#paint11_linear_16_489)"/>
<path d="M363.834 125.299C363.393 125.299 362.029 125.45 364.59 130.567C365.728 133.437 366.241 136.516 366.093 139.6C365.868 140.56 363.834 141.776 363.834 143.361C363.834 153.933 364.369 155.044 361.576 156.906C359.894 157.522 358.1 157.778 356.312 157.657C354.054 157.657 351.796 156.906 348.787 156.906C348.035 156.906 348.035 158.409 348.035 158.409C350.29 159.765 352.845 160.543 355.473 160.675C358.1 160.807 360.72 160.288 363.099 159.164C368.094 155.832 365.358 148.792 365.358 144.112C365.949 144.167 366.545 144.055 367.076 143.789C367.608 143.524 368.055 143.115 368.367 142.609C371.675 136.774 364.594 126.059 363.834 125.299Z" fill="#FFFEFE" fill-opacity="0.9"/>
<path d="M350.291 143.347C349.683 144.077 349.293 144.963 349.166 145.905C349.039 146.846 349.181 147.804 349.574 148.669C349.967 149.533 350.597 150.269 351.389 150.792C352.182 151.315 353.107 151.604 354.056 151.625C356.065 151.425 357.286 150.665 357.066 148.615C356.964 147.68 354.807 148.615 353.301 148.615C352.549 148.615 351.798 147.108 351.798 146.357C351.798 146.369 352.549 141.101 350.291 143.347Z" fill="#FFFEFE" fill-opacity="0.9"/>
<path d="M357.814 118.529C345.347 118.529 344.203 132.209 343.521 133.577C342.77 134.333 340.585 133.749 339.005 134.333C329.613 137.8 334.848 152.108 342.015 146.371C343.521 144.864 342.015 141.854 340.512 143.361C338.254 144.864 337.502 141.103 338.254 139.6C340.806 134.492 345.016 140.368 348.054 134.333C349.402 130.282 349.831 122.69 359.341 120.787C358.565 120.036 358.565 118.529 357.814 118.529Z" fill="#FFFEFE" fill-opacity="0.9"/>
<path d="M354.804 112.509C341.398 110.059 332.296 133.919 339.001 130.567C342.525 127.043 340.712 118.725 354.804 114.012C355.556 114.012 355.556 112.509 354.804 112.509Z" fill="#FFFEFE" fill-opacity="0.9"/>
<path d="M357.817 107.993C340.217 104.473 329.976 121.502 329.976 128.313C329.976 130.641 333.737 131.633 333.737 125.299C335.524 120.583 338.724 116.534 342.9 113.706C347.076 110.878 352.023 109.409 357.066 109.5C358.569 109.5 358.569 107.993 357.817 107.993Z" fill="#FFFEFE" fill-opacity="0.9"/>
<path d="M333.734 148.628C333.734 147.877 332.982 147.121 332.231 147.876C330.827 150.306 329.571 152.818 328.47 155.398C325.881 156.081 323.467 157.308 321.391 158.998C319.314 160.688 317.622 162.802 316.428 165.199C313.643 170.773 328.36 168.903 329.973 158.424C331.993 155.507 333.283 152.148 333.734 148.628Z" fill="#FFFEFE" fill-opacity="0.9"/>
<path d="M319.438 153.897C322.648 149.942 325.423 145.652 327.715 141.103C327.715 136.007 319.348 150.132 317.935 150.132C316.092 150.253 314.296 150.767 312.667 151.638C310.066 153.513 305.129 156.13 307.4 158.409C310.572 161.582 319.438 158.311 319.438 153.897Z" fill="#FFFEFE" fill-opacity="0.9"/>
<path d="M316.43 144.112C322.58 141.037 323.915 137.382 326.965 134.312C327.717 133.556 326.214 132.053 325.459 132.805C323.956 134.312 316.43 140.331 314.172 140.331C313.42 140.331 309.659 141.082 308.152 141.082C303.583 141.082 300.21 144.635 305.143 147.101C310.982 150.041 316.43 146.134 316.43 144.112Z" fill="#FFFEFE" fill-opacity="0.9"/>
<path d="M354.052 129.816C354.546 129.322 361.811 125.299 354.803 125.299C351.965 125.299 352.169 131.698 354.052 129.816Z" fill="#FFFEFE" fill-opacity="0.9"/>
<path d="M418.766 120.035C414.539 121.44 414.662 123.02 399.953 132.825C394.113 136.475 387.567 139.416 380.997 143.034C380.095 143.528 380.503 144.871 381.144 144.871C388.236 142.642 395.052 139.613 401.46 135.843C403.052 135.026 419.321 123.457 420.272 122.297C420.946 121.468 419.517 120.035 418.766 120.035Z" fill="#FFFEFE" fill-opacity="0.9"/>
<path d="M427.794 167.441C423.433 169.995 418.908 172.257 414.249 174.211C413.134 174.583 403.309 178.764 402.962 180.23C401.634 185.853 422.612 174.971 428.994 169.205C429.194 169.033 429.323 168.793 429.357 168.532C429.392 168.27 429.329 168.005 429.18 167.788C429.032 167.57 428.809 167.414 428.553 167.35C428.297 167.286 428.027 167.318 427.794 167.441Z" fill="#FFFEFE" fill-opacity="0.9"/>
<path d="M393.726 196.883C394.33 200.758 395.359 204.323 396.176 208.823C397.084 212.937 398.342 216.966 399.937 220.866C416.271 263.624 397.662 217.962 432.295 297.616C434.553 302.132 436.056 306.649 438.314 311.161C440.572 315.673 442.075 320.194 444.333 323.955C445.088 324.706 445.84 323.955 445.84 323.203C444.928 319.335 443.668 315.557 442.075 311.916C437.807 301.238 444.014 316.482 425.52 275.797C409.77 241.14 407.385 235.677 399.185 211.082C397.678 206.569 396.866 202.13 394.906 197.479C394.326 196.07 393.566 195.87 393.726 196.883Z" fill="#FFFEFE" fill-opacity="0.9"/>
<path d="M334.488 165.184C314.977 173.216 295.58 185.499 275.04 185.499H264.504C260.743 185.499 257.734 184.748 253.973 184.748C251.715 184.748 251.715 187.006 253.217 187.757C266.285 192.11 283.305 188.211 296.862 185.499C310.842 181.399 324.058 175.044 335.991 166.686C335.961 166.298 335.793 165.933 335.517 165.657C335.242 165.382 334.877 165.214 334.488 165.184Z" fill="#FFFEFE" fill-opacity="0.9"/>
<path d="M244.941 247.956C292.596 249.145 337.421 221.618 328.469 221.618C317.995 225.109 305.716 234.746 288.585 238.172C274.586 242.134 260.22 244.655 245.708 245.698C244.189 246.45 244.189 247.936 244.941 247.956Z" fill="#FFFEFE" fill-opacity="0.9"/>
<path d="M253.22 190.766C247.887 189.431 244.702 188.022 242.689 183.996C242.485 183.587 233.023 168.401 229.895 167.441C224.011 165.628 228.102 170.161 228.388 170.45C229.556 171.614 239.781 188.21 244.192 191.517C251.358 196.295 255.164 190.766 253.22 190.766Z" fill="#FFFEFE" fill-opacity="0.9"/>
<path d="M226.133 174.964C226.133 181.677 207.835 171.203 200.546 171.203C190.337 171.203 222.597 183.755 225.378 181.003C229.294 179.692 226.133 171.901 226.133 174.964Z" fill="#FFFEFE" fill-opacity="0.9"/>
<path d="M198.29 187.756C218.773 187.756 212.84 185.498 208.822 185.498C198.196 185.498 196.195 187.756 198.29 187.756Z" fill="#FFFEFE" fill-opacity="0.9"/>
<path d="M200.545 199.795C203.114 198.512 216.112 196.299 211.836 194.527C209.329 193.49 194.077 199.795 200.545 199.795Z" fill="#FFFEFE" fill-opacity="0.9"/>
<path d="M445.856 114.763C448.388 113.24 454.325 100.095 453.382 95.1989C453.239 94.4598 451.875 93.6921 451.124 94.4434C448.415 100.543 446.154 106.832 444.361 113.26C444.361 114.012 445.109 115.216 445.856 114.763Z" fill="#FFFEFE" fill-opacity="0.9"/>
<path d="M460.154 92.9452C460.154 95.2034 458.52 98.5478 461.656 99.7157C464.568 100.794 467.782 98.3559 470.04 96.8572C473.999 94.9481 477.747 92.6311 481.225 89.9438C481.968 87.6815 478.84 87.755 477.958 88.3553C477.076 88.9556 464.319 96.4611 463.911 96.7143C463.286 97.1227 463.159 97.4657 462.408 97.4657C460.901 97.4657 461.089 94.693 461.183 93.6312C461.322 92.2469 460.154 92.1897 460.154 92.9452Z" fill="#FFFEFE" fill-opacity="0.9"/>
<path d="M489.387 96.595C489.174 96.383 488.918 96.2204 488.635 96.1187C488.353 96.0171 488.052 95.9789 487.753 96.007C483.294 96.448 474.192 100.262 475.968 102.724C476.952 104.092 478.418 103.174 479.312 102.59C486.589 97.7915 489.705 98.747 490.089 97.8242C490.277 97.3423 489.877 97.085 489.387 96.595Z" fill="#FFFEFE" fill-opacity="0.9"/>
<path d="M488.745 107.992C486.585 107.71 484.39 107.9 482.312 108.55C480.233 109.2 478.32 110.295 476.707 111.757C475.955 112.509 476.707 113.26 477.458 113.26C477.866 113.26 488.337 110.455 488.745 110.25C489.5 109.499 490.248 108.119 488.745 107.992Z" fill="#FFFEFE" fill-opacity="0.9"/>
<path d="M481.224 122.289C480.466 122.044 479.66 121.985 478.874 122.116C478.088 122.248 477.345 122.566 476.708 123.044C458.487 122.665 459.741 121.431 455.371 122.179C450.071 123.169 445.036 125.255 440.589 128.304C440.353 136.442 441.368 144.567 443.599 152.397C444.35 154.655 445.857 156.162 448.115 155.407C450.157 154.039 453.093 128.827 451.525 126.095C458.846 124.568 462.224 126.814 472.943 126.814C476.132 127.24 479.363 126.432 481.976 124.555C482.747 123.796 481.976 123.04 481.224 122.289Z" fill="#FFFEFE" fill-opacity="0.9"/>
<path d="M373.617 191.534C389.416 225.394 391.425 263.09 401.458 299.139C402.924 304.415 404.354 308.94 405.95 314.187C407.127 319.027 409.168 323.616 411.974 327.732C412.725 328.488 413.476 327.732 413.476 326.981C413.476 319.99 408.123 313.66 405.95 300.646C403.717 291.58 401.279 282.597 399.2 273.539C393.957 250.672 388.583 214.973 374.368 190.766C374.001 190.141 373.155 190.766 373.617 191.534Z" fill="#FFFEFE" fill-opacity="0.9"/>
<path d="M497.78 408.987C507.498 412.225 504.791 411.073 518.846 415.757C521.249 416.691 523.796 417.2 526.372 417.264C527.875 417.264 527.875 415.006 527.124 414.25C525.143 412.838 522.785 412.053 520.353 411.996C518.19 411.137 515.903 410.628 513.579 410.489C509.087 409.738 503.799 408.231 499.286 407.48C497.04 405.973 496.273 408.231 497.78 408.987Z" fill="url(#paint12_linear_16_489)"/>
<path d="M663.319 426.292C662.678 425.908 667.096 428.183 646.764 418.015C643.685 416.039 641.363 413.08 640.177 409.619C641.019 409.378 641.317 408.802 640.745 408.231C638.626 400.472 637.172 392.035 635.134 384.183C639.06 383.368 642.942 382.354 646.764 381.145C651.432 380.144 655.975 378.63 660.309 376.628C661.812 375.877 661.061 373.619 658.807 373.619C647.507 375.877 649.974 377.702 633.975 380.389C617.359 383.803 600.492 385.851 583.543 386.514C583.29 379.809 579.075 378.143 573.024 343.527C569.949 325.968 568.336 302.283 565.759 271.289C565.759 271.085 565.502 270.971 565.498 271.289C565.613 302.106 568.636 332.843 574.526 363.091C576.147 371.055 578.205 378.924 580.693 386.661C559.528 387.686 532.352 387.388 512.089 381.153C511.334 381.153 510.582 381.904 511.334 382.655C522.035 385.999 533.045 388.263 544.198 389.414C543.871 391.01 544.443 389.45 544.443 399.214C544.595 402.767 545.1 406.296 545.95 409.75C545.95 410.158 546.766 410.468 548.065 410.689C546.523 416.514 544.028 422.044 540.682 427.056C539.175 429.314 536.921 431.572 535.414 433.826C533.231 436.29 531.453 439.086 530.146 442.108C530.146 442.859 530.146 443.61 531.653 444.362C544.443 446.62 551.969 434.561 561.753 429.314C564.007 428.563 567.017 427.807 567.772 425.553C569.973 421.147 564.44 416.422 562.055 411.195C563.536 411.029 565.005 410.77 566.453 410.419C567.882 410.08 566.919 408.043 567.021 405.233C567.074 403.894 567.021 395.388 567.021 390.888C582.669 391.349 598.326 390.422 613.81 388.115C615.263 396.443 617.228 404.673 619.694 412.759C619.694 413.511 620.45 414.262 621.953 414.262C623.304 414.095 624.615 413.886 625.91 413.641C625.726 416.915 625.155 420.155 624.211 423.295C624.025 424.038 623.996 424.812 624.127 425.568C624.258 426.323 624.545 427.042 624.97 427.68C625.396 428.317 625.949 428.859 626.596 429.27C627.243 429.681 627.969 429.952 628.727 430.065C631.422 430.964 637.686 431.184 642.268 432.323C646.42 433.614 650.719 434.373 655.062 434.582C672.597 434.569 666.725 428.318 663.319 426.292ZM564.007 424.785C564.007 425.541 562.504 426.292 561.753 426.292C560.246 427.043 559.479 427.015 557.988 427.795C550.201 431.878 543.206 442.724 533.152 442.361C534.479 440.141 535.991 438.037 537.672 436.072C539.175 433.814 541.433 430.804 542.94 428.55C545.95 423.283 549.711 417.263 548.959 411.24C549.245 410.391 548.008 411.24 558.76 411.24C559.804 414.692 561.322 417.982 563.272 421.016C563.772 421.49 564.112 422.107 564.244 422.783C564.375 423.459 564.293 424.159 564.007 424.785ZM563.256 407.479C562.504 407.479 560.998 408.231 560.246 408.231C556.509 408.777 552.736 409.03 548.959 408.986C548.959 408.578 547.453 400.264 547.453 399.186C547.255 395.976 546.873 392.78 546.309 389.614C551.94 390.181 557.592 390.537 563.256 390.741V407.479ZM622.7 411.24C620.813 406.52 615.954 388.197 615.835 387.788C624.778 386.367 629.679 385.118 631.986 384.754C633.48 392.578 635.575 400.366 637 407.479C632.356 409.173 627.562 410.428 622.684 411.228L622.7 411.24ZM658.067 433.063C649.766 433.442 642.264 430.053 634.742 429.302C632.141 429.535 629.527 429.012 627.216 427.795C625.714 427.043 626.465 425.541 626.465 423.283C627.623 420.113 627.855 416.68 627.135 413.384C630.601 412.636 634.012 411.651 637.343 410.436C638.566 413.205 640.22 415.763 642.244 418.015C643.914 419.925 645.966 421.463 648.267 422.531C648.957 422.874 663.784 430.539 664.822 431.56C664.417 431.695 663.94 432.797 658.051 433.063H658.067Z" fill="#FFFEFE" fill-opacity="0.9"/>
<path d="M454.135 332.983C451.125 329.974 445.118 330.819 440.59 331.48C407.791 336.262 370.827 364.014 321.698 380.389C315.513 383.007 308.796 384.127 302.097 383.656C303.162 380.364 303.893 376.738 305.139 373.627C311.971 332.648 316.054 279.901 319.431 235.921C318.68 235.17 317.173 235.17 317.173 235.921C311.285 280.534 308.438 324.971 301.374 370.617C300.35 374.876 299.794 379.235 299.716 383.615C298.899 384.023 298.711 384.913 299.867 384.913C299.867 385.665 301.374 386.42 301.374 385.665L301.468 385.42C310.684 387.972 320.35 384.542 329.077 381.291C328.925 392.64 332.225 405.16 332.225 420.281C332.928 426.953 331.891 433.693 329.215 439.845C326.206 446.616 321.542 452.557 317.928 459.409C317.443 460.042 317.12 460.785 316.989 461.572C316.857 462.358 316.92 463.165 317.173 463.922C317.173 467.687 320.922 468.365 323.948 467.687C327.36 466.363 330.442 464.309 332.976 461.668C336.737 457.151 340.502 452.635 344.263 447.375C344.263 447.375 348.78 451.892 350.282 448.131C350.282 440.135 348.78 436.411 348.78 431.576C348.78 427.88 351.038 413.2 351.038 404.486C351.744 393.848 352.455 382.549 353.161 371.818C362.035 368.102 370.165 364.443 377.663 360.955C382.183 384.264 393.155 425.818 393.155 426.292C392.135 431.24 391.882 436.315 392.404 441.34C392.404 443.598 395.414 444.349 396.896 442.095C397.63 440.427 398.648 438.898 399.906 437.579C400.661 438.33 401.412 439.082 401.412 439.837C403.863 443.15 406.928 445.96 410.441 448.114C413.422 450.553 416.719 452.577 420.242 454.134C420.961 454.583 421.774 454.863 422.618 454.952C423.462 455.041 424.315 454.936 425.112 454.646C425.91 454.356 426.63 453.888 427.22 453.278C427.81 452.668 428.252 451.931 428.515 451.124C427.808 447.09 426.272 443.246 424.003 439.837C421.679 436.432 419.167 433.16 416.477 430.037C413.569 427.23 411.71 423.512 411.209 419.501C409.706 412.731 409.065 405.184 407.448 397.679C405.333 387.878 403.903 378.078 402.18 368.334C401.776 362.392 400.819 356.499 399.322 350.734C416.387 342.726 430.062 336.818 442.811 335.217C445.305 334.841 447.84 334.841 450.333 335.217C454.098 336.72 451.84 340.485 450.333 342.743C449.582 343.494 451.089 345.001 451.84 344.245C454.886 342.016 457.896 336.744 454.135 332.983ZM340.51 439.082C338.93 441.903 336.896 444.446 334.491 446.608C332.233 448.866 329.975 451.875 326.965 452.627C328.049 450.519 329.307 448.505 330.726 446.608C332.933 442.543 334.699 438.254 335.994 433.814C337.995 423.813 335.553 406.744 333.736 393.183C333.127 388.609 333.009 384.607 332.009 380.193C338.861 377.645 345.337 375.094 351.438 372.54C341.866 444.468 344.235 431.645 340.51 439.082ZM402.213 390.924C402.936 399.206 404.471 407.479 405.222 415.756C405.389 418.076 405.897 420.359 406.729 422.531C408.373 427.246 410.929 431.592 414.251 435.321C415.758 436.828 419.519 439.837 419.519 442.095C416.509 442.847 413.536 439.78 411.241 438.33C407.665 435.683 404.385 432.656 401.461 429.302C400.71 427.795 399.203 427.043 398.452 425.541C398.452 424.034 397.696 423.282 396.945 421.776C394.922 412.617 392.41 403.574 389.419 394.685C386.561 383.182 382.979 371.675 379.386 360.167C385.576 357.284 391.355 354.528 396.786 351.963C396.962 352.952 397.268 353.913 397.696 354.822C399.806 366.773 401.313 378.822 402.213 390.924Z" fill="#FFFEFE" fill-opacity="0.9"/>
<path d="M628.626 165.977C607.563 128.535 606.42 113.989 598.351 89.7251C597.359 86.137 596.91 82.4205 597.019 78.6995C597.019 69.3074 601.131 66.8572 603.038 58.3839C603.72 55.3539 605.007 51.3275 603.038 48.5834C602.911 48.403 602.741 48.256 602.545 48.1545C602.348 48.053 602.13 48 601.909 48C601.688 48 601.47 48.053 601.274 48.1545C601.077 48.256 600.908 48.403 600.78 48.5834C599.964 50.0535 600.78 51.593 600.78 53.8512C600.253 59.1096 598.721 64.2179 596.268 68.899C594.516 75.3027 594.516 82.0595 596.268 88.4632C597.567 101.58 591 107.248 591 110.286C590.998 110.385 591.016 110.484 591.053 110.576C591.09 110.668 591.145 110.752 591.215 110.822C591.286 110.892 591.369 110.947 591.461 110.984C591.554 111.021 591.652 111.039 591.752 111.037C593.357 109.863 594.649 108.314 595.517 106.525C600.196 98.423 595.876 93.3104 601.536 110.286C608.2 130.275 615.301 149.582 627.87 166.724C628.626 167.484 629.377 166.732 628.626 165.977Z" fill="#FFFEFE" fill-opacity="0.9"/>
<path d="M860.474 702.451C848.579 700.752 847.064 703.019 826.614 700.193C810.577 698.33 795.316 692.271 782.369 682.627C769.421 672.983 759.246 660.096 752.869 645.265C750.523 639.788 749.247 633.912 749.108 627.955C749.108 627.204 749.859 627.204 750.615 627.204C753.811 633.252 758.156 638.62 763.404 643.007C770.502 648.835 778.693 653.184 787.497 655.797C795.309 658.597 803.38 660.615 811.59 661.82L813.848 666.312C815.5 670.361 816.02 674.783 815.355 679.105C815.071 683.506 814.054 687.829 812.346 691.895C811.59 694.153 813.848 694.909 815.355 693.402C821.374 688.134 821.374 678.354 820.623 670.828C819.973 668.29 819.219 665.779 818.365 663.302C822.953 664.533 827.285 666.571 831.159 669.321C833.257 670.694 835.038 672.5 836.381 674.618C837.919 676.707 839.184 678.983 840.146 681.392C840.33 681.683 840.601 681.908 840.92 682.036C841.24 682.163 841.591 682.187 841.924 682.103C842.258 682.019 842.557 681.833 842.778 681.569C842.999 681.306 843.131 680.98 843.156 680.637C842.405 672.359 834.172 664.711 827.353 661.828C823.506 660.092 819.464 658.828 815.314 658.063C813.737 655.435 811.977 652.922 810.047 650.541C797.453 636.151 779.894 631.757 765.65 624.953C758.059 621.331 750.603 614.422 749.096 606.145C750.809 590.147 751.061 574.027 749.847 557.983C744.592 433.844 668.724 446.209 618.917 436.837C606.151 434.432 594.085 433.072 581.295 430.062C580.952 430.087 580.626 430.22 580.362 430.441C580.099 430.662 579.912 430.96 579.828 431.294C579.745 431.627 579.768 431.979 579.896 432.298C580.024 432.617 580.249 432.888 580.539 433.072C633.148 448.659 664.338 442.615 695.671 457.904C711.074 465.89 723.285 478.898 730.283 494.774C745.445 526.548 745.931 581.06 742.325 615.925C741.57 618.183 741.57 620.441 740.818 622.699C730.201 654.502 721.258 685.843 737.057 716.004C739.63 720.561 742.655 724.847 746.086 728.798C748.407 731.851 751.536 734.194 755.119 735.56C756.626 736.312 758.129 734.809 756.626 733.302C754.368 730.293 751.358 728.034 749.1 725.025C746.842 722.015 744.583 718.254 742.329 715.245C728.625 690.58 733.705 663.947 740.071 638.474C740.823 636.216 741.517 634.709 740.071 652.767C739.151 662.4 740.174 672.121 743.081 681.351C749.48 700.544 764.131 704.162 779.951 718.222C787.477 725.747 790.487 736.279 791.989 746.806C791.989 748.313 795.003 748.313 795.003 746.055C795.552 736.546 793.189 727.096 788.228 718.965C783.128 711.329 776.055 707.122 768.664 701.659C748.516 686.786 746.49 679.383 744.571 656.511V636.232C744.571 635.481 745.429 634.705 746.829 640.749C749.829 651.67 754.943 661.896 761.881 670.848C775.806 689.196 798.061 699.842 820.574 703.958C830.236 705.837 840.083 706.594 849.918 706.216C853.231 706.083 856.519 705.578 859.719 704.709C861.222 704.709 861.977 703.202 860.474 702.451ZM755.119 623.443C761.877 628.751 769.519 632.826 777.693 635.481C789.29 639.553 799.475 646.866 807.041 656.552C804.032 655.796 800.263 655.061 797.241 654.294C779.914 649.867 761.877 642.255 752.844 625.709C752.113 622.691 752.865 621.184 755.119 623.443Z" fill="url(#paint13_linear_16_489)"/>
<path d="M354.806 134.331C354.806 134.628 354.864 134.922 354.978 135.196C355.091 135.47 355.257 135.719 355.467 135.928C355.677 136.138 355.926 136.304 356.2 136.418C356.474 136.531 356.767 136.59 357.064 136.59C357.36 136.59 357.654 136.531 357.928 136.418C358.202 136.304 358.451 136.138 358.661 135.928C358.87 135.719 359.037 135.47 359.15 135.196C359.264 134.922 359.322 134.628 359.322 134.331C359.322 134.035 359.264 133.741 359.15 133.467C359.037 133.193 358.87 132.944 358.661 132.735C358.451 132.525 358.202 132.359 357.928 132.245C357.654 132.132 357.36 132.073 357.064 132.073C356.767 132.073 356.474 132.132 356.2 132.245C355.926 132.359 355.677 132.525 355.467 132.735C355.257 132.944 355.091 133.193 354.978 133.467C354.864 133.741 354.806 134.035 354.806 134.331Z" fill="#FFFEFE" fill-opacity="0.9"/>
<path d="M432.312 165.935C432.729 166.298 433.264 166.498 433.817 166.498C434.37 166.498 434.905 166.298 435.322 165.935C437.461 164.615 439.476 163.104 441.341 161.418C442.848 159.915 445.106 158.409 446.609 156.906C448.115 156.154 449.618 153.141 447.36 152.389C446.386 152.05 445.523 151.453 444.86 150.662C444.198 149.871 443.762 148.916 443.599 147.898C441.704 141.772 442.092 135.022 442.092 118.549C442.47 115.047 442.47 111.515 442.092 108.014C440.59 105.004 435.322 108.765 433.815 110.272C430.805 112.53 426.293 114.788 424.786 118.549C422.446 131.404 422.312 157.351 432.312 165.935Z" fill="url(#paint14_linear_16_489)"/>
<path d="M564.747 135.083C566.736 135.083 566.736 139.599 564.747 139.599C562.758 139.599 562.754 135.083 564.747 135.083Z" fill="#FFFEFE" fill-opacity="0.9"/>
<path d="M551.954 132.073C553.947 132.073 553.947 136.586 551.954 136.586C549.961 136.586 549.961 132.073 551.954 132.073Z" fill="#FFFEFE" fill-opacity="0.9"/>
</g>
<defs>
<filter id="filter0_d_16_489" x="-34.4048" y="0.221451" width="1015.47" height="1006.09" filterUnits="userSpaceOnUse" color-interpolation-filters="sRGB">
<feFlood flood-opacity="0" result="BackgroundImageFix"/>
<feColorMatrix in="SourceAlpha" type="matrix" values="0 0 0 0 0 0 0 0 0 0 0 0 0 0 0 0 0 0 127 0" result="hardAlpha"/>
<feOffset dy="85.76"/>
<feGaussianBlur stdDeviation="59.885"/>
<feComposite in2="hardAlpha" operator="out"/>
<feColorMatrix type="matrix" values="0 0 0 0 0.105882 0 0 0 0 0.105882 0 0 0 0 0.105882 0 0 0 1 0"/>
<feBlend mode="normal" in2="BackgroundImageFix" result="effect1_dropShadow_16_489"/>
<feBlend mode="normal" in="SourceGraphic" in2="effect1_dropShadow_16_489" result="shape"/>
</filter>
<linearGradient id="paint0_linear_16_489" x1="256.338" y1="187.005" x2="256.338" y2="248.029" gradientUnits="userSpaceOnUse">
<stop stop-color="#22F02B"/>
<stop offset="1" stop-color="#F6F335"/>
</linearGradient>
<linearGradient id="paint1_linear_16_489" x1="661.799" y1="199.722" x2="661.799" y2="262.395" gradientUnits="userSpaceOnUse">
<stop stop-color="#22F02B"/>
<stop offset="1" stop-color="#F6F335"/>
</linearGradient>
<linearGradient id="paint2_linear_16_489" x1="490.516" y1="88.3467" x2="490.516" y2="141.143" gradientUnits="userSpaceOnUse">
<stop stop-color="#22F02B"/>
<stop offset="1" stop-color="#F6F335"/>
</linearGradient>
<linearGradient id="paint3_linear_16_489" x1="543.713" y1="150.887" x2="543.713" y2="272.328" gradientUnits="userSpaceOnUse">
<stop stop-color="#22F02B"/>
<stop offset="1" stop-color="#F6F335"/>
</linearGradient>
<linearGradient id="paint4_linear_16_489" x1="575.699" y1="153.14" x2="575.699" y2="276.633" gradientUnits="userSpaceOnUse">
<stop stop-color="#22F02B"/>
<stop offset="1" stop-color="#F6F335"/>
</linearGradient>
<linearGradient id="paint5_linear_16_489" x1="356.394" y1="152.062" x2="356.394" y2="273.067" gradientUnits="userSpaceOnUse">
<stop stop-color="#22F02B"/>
<stop offset="1" stop-color="#F6F335"/>
</linearGradient>
<linearGradient id="paint6_linear_16_489" x1="407.584" y1="152.733" x2="407.584" y2="244.299" gradientUnits="userSpaceOnUse">
<stop stop-color="#22F02B"/>
<stop offset="1" stop-color="#F6F335"/>
</linearGradient>
<linearGradient id="paint7_linear_16_489" x1="379.948" y1="602.371" x2="379.948" y2="640.308" gradientUnits="userSpaceOnUse">
<stop stop-color="#22F02B"/>
<stop offset="1" stop-color="#F6F335"/>
</linearGradient>
<linearGradient id="paint8_linear_16_489" x1="365.869" y1="635.455" x2="365.869" y2="720.732" gradientUnits="userSpaceOnUse">
<stop stop-color="#22F02B"/>
<stop offset="1" stop-color="#F6F335"/>
</linearGradient>
<linearGradient id="paint9_linear_16_489" x1="294.643" y1="601.181" x2="294.643" y2="680.92" gradientUnits="userSpaceOnUse">
<stop stop-color="#22F02B"/>
<stop offset="1" stop-color="#F6F335"/>
</linearGradient>
<linearGradient id="paint10_linear_16_489" x1="275.512" y1="670.637" x2="275.512" y2="762.172" gradientUnits="userSpaceOnUse">
<stop stop-color="#22F02B"/>
<stop offset="1" stop-color="#F6F335"/>
</linearGradient>
<linearGradient id="paint11_linear_16_489" x1="306.733" y1="687.127" x2="306.733" y2="779.964" gradientUnits="userSpaceOnUse">
<stop stop-color="#22F02B"/>
<stop offset="1" stop-color="#F6F335"/>
</linearGradient>
<linearGradient id="paint12_linear_16_489" x1="512.308" y1="406.973" x2="512.308" y2="417.264" gradientUnits="userSpaceOnUse">
<stop stop-color="#22F02B"/>
<stop offset="1" stop-color="#F6F335"/>
</linearGradient>
<linearGradient id="paint13_linear_16_489" x1="720.536" y1="430.062" x2="720.536" y2="747.857" gradientUnits="userSpaceOnUse">
<stop stop-color="#22F02B"/>
<stop offset="1" stop-color="#F6F335"/>
</linearGradient>
<linearGradient id="paint14_linear_16_489" x1="435.994" y1="106.879" x2="435.994" y2="166.498" gradientUnits="userSpaceOnUse">
<stop stop-color="#22F02B"/>
<stop offset="1" stop-color="#F6F335"/>
</linearGradient>
</defs>
</svg>
