<svg width="139" height="45" viewBox="0 0 139 45" fill="none" xmlns="http://www.w3.org/2000/svg">
<g filter="url(#filter0_d_104_266)">
<path d="M67.165 38.5184C65.3307 38.5184 63.656 38.0465 62.1407 37.1028C60.6388 36.1591 59.4359 34.8964 58.5321 33.3147C57.6415 31.7197 57.1962 29.9585 57.1962 28.0313C57.1962 26.0907 57.6415 24.3229 58.5321 22.7279C59.4359 21.1329 60.6388 19.8635 62.1407 18.9198C63.656 17.9761 65.3307 17.5043 67.165 17.5043C69.1056 17.5043 70.8269 17.996 72.3288 18.9796C73.8441 19.9632 75.0204 21.3123 75.8577 23.0269C76.7084 24.7416 77.1138 26.7021 77.0739 28.9085H59.4492C59.5954 30.3307 60.0207 31.6067 60.7252 32.7365C61.4429 33.853 62.3601 34.7369 63.4766 35.3882C64.5931 36.0395 65.8225 36.3651 67.165 36.3651C68.6404 36.3651 69.9695 35.9797 71.1525 35.2088C72.3487 34.4245 73.2991 33.3546 74.0036 31.9988L76.1767 32.4973C75.3792 34.265 74.1764 35.7138 72.5681 36.8436C70.9598 37.9601 69.1587 38.5184 67.165 38.5184ZM59.3894 27.0743H74.9007C74.821 25.7185 74.4222 24.4691 73.7045 23.326C73 22.1696 72.0763 21.2459 70.9332 20.5547C69.7901 19.8502 68.534 19.498 67.165 19.498C65.7827 19.498 64.5266 19.8369 63.3968 20.5148C62.2803 21.1927 61.3632 22.1098 60.6454 23.2662C59.941 24.4093 59.5223 25.6786 59.3894 27.0743ZM87.9436 38.5184C86.2423 38.5184 84.7536 38.1529 83.4776 37.4218C82.2016 36.6775 81.2114 35.6939 80.5069 34.4711C79.8158 33.2349 79.4702 31.8659 79.4702 30.3639H81.6234C81.6234 31.4671 81.876 32.4773 82.381 33.3944C82.8861 34.2983 83.6105 35.0227 84.5542 35.5676C85.4979 36.0993 86.6277 36.3651 87.9436 36.3651C89.0335 36.3651 90.057 36.0993 91.014 35.5676C91.9843 35.0227 92.7685 34.2983 93.3666 33.3944C93.978 32.4773 94.2837 31.4671 94.2837 30.3639C94.2837 28.3303 93.546 26.8084 92.0707 25.7983C90.5953 24.7748 88.7278 24.2631 86.4682 24.2631V22.4089C88.555 22.4089 90.2364 21.9503 91.5124 21.0332C92.7884 20.1161 93.4264 18.7803 93.4264 17.0258C93.4264 16.0555 93.1539 15.1716 92.609 14.3741C92.0773 13.5633 91.3795 12.9186 90.5155 12.4401C89.6649 11.9483 88.761 11.7024 87.804 11.7024C86.8205 11.7024 85.89 11.9483 85.0128 12.4401C84.1355 12.9186 83.4178 13.5633 82.8595 14.3741C82.3146 15.1716 82.0421 16.0555 82.0421 17.0258H79.8889C79.8889 15.6567 80.2544 14.4073 80.9854 13.2775C81.7298 12.1477 82.7 11.2439 83.8963 10.566C85.1058 9.88813 86.4018 9.54919 87.7841 9.54919C89.1532 9.54919 90.4292 9.88813 91.6121 10.566C92.7951 11.2439 93.7521 12.1477 94.4831 13.2775C95.2142 14.4073 95.5797 15.6567 95.5797 17.0258C95.5797 18.4878 95.1942 19.7838 94.4233 20.9136C93.6657 22.0301 92.6489 22.8143 91.3729 23.2662C93.021 23.8244 94.2771 24.7349 95.141 25.9976C96.005 27.2603 96.437 28.7158 96.437 30.3639C96.437 31.8526 96.0382 33.215 95.2407 34.4511C94.4565 35.6873 93.4198 36.6775 92.1305 37.4218C90.8412 38.1529 89.4456 38.5184 87.9436 38.5184ZM100.518 38.5184C100.159 38.5184 99.8537 38.3855 99.6011 38.1196C99.3486 37.8671 99.2223 37.5547 99.2223 37.1826C99.2223 36.8237 99.3486 36.518 99.6011 36.2654C99.8537 36.0129 100.159 35.8866 100.518 35.8866C100.89 35.8866 101.203 36.0129 101.455 36.2654C101.721 36.518 101.854 36.8237 101.854 37.1826C101.854 37.5547 101.721 37.8671 101.455 38.1196C101.203 38.3855 100.89 38.5184 100.518 38.5184ZM123.369 18.0625H125.522V38H123.369L123.309 33.9128C122.631 35.2951 121.661 36.4116 120.398 37.2623C119.149 38.0997 117.647 38.5184 115.893 38.5184C114.444 38.5184 113.081 38.2459 111.805 37.7009C110.529 37.156 109.406 36.3984 108.436 35.4281C107.479 34.4578 106.728 33.3346 106.183 32.0586C105.638 30.7826 105.366 29.4202 105.366 27.9714C105.366 26.0441 105.831 24.2896 106.761 22.7079C107.705 21.1262 108.968 19.8635 110.549 18.9198C112.131 17.9761 113.879 17.5043 115.793 17.5043C117.561 17.5043 119.089 17.9362 120.378 18.8002C121.681 19.6509 122.698 20.7674 123.429 22.1497L123.369 18.0625ZM115.873 36.405C117.401 36.405 118.71 36.0328 119.8 35.2885C120.904 34.5309 121.748 33.5207 122.332 32.258C122.917 30.982 123.21 29.5731 123.21 28.0313C123.21 26.4628 122.911 25.0473 122.312 23.7846C121.728 22.5086 120.884 21.4984 119.78 20.7541C118.69 19.9964 117.388 19.6176 115.873 19.6176C114.331 19.6176 112.929 19.9964 111.666 20.7541C110.416 21.5117 109.42 22.5285 108.675 23.8045C107.931 25.0805 107.559 26.4894 107.559 28.0313C107.559 29.5997 107.937 31.0219 108.695 32.2979C109.466 33.5606 110.476 34.5641 111.726 35.3084C112.988 36.0395 114.371 36.405 115.873 36.405ZM129.498 18.0625H131.651V38H129.498V18.0625ZM130.594 14.2943C130.222 14.2943 129.903 14.1747 129.637 13.9354C129.385 13.6829 129.258 13.3705 129.258 12.9984C129.258 12.6262 129.385 12.3205 129.637 12.0813C129.903 11.8287 130.222 11.7024 130.594 11.7024C130.953 11.7024 131.259 11.8287 131.511 12.0813C131.777 12.3205 131.91 12.6262 131.91 12.9984C131.91 13.3705 131.777 13.6829 131.511 13.9354C131.259 14.1747 130.953 14.2943 130.594 14.2943Z" fill="#BDBDBD" fill-opacity="0.9" shape-rendering="crispEdges"/>
</g>
<circle cx="23" cy="22.5" r="22.5" fill="url(#paint0_linear_104_266)" fill-opacity="0.9"/>
<path fill-rule="evenodd" clip-rule="evenodd" d="M33.8386 8.82223C33.8386 7.8331 33.0367 7.03125 32.0476 7.03125H13.5408C12.5517 7.03125 11.7499 7.8331 11.7499 8.82223C11.7499 9.81136 12.5517 10.6132 13.5408 10.6132H28.6296L28.0725 12.8861C27.6477 14.6196 27.8684 16.3497 28.9223 15.9196C29.8666 15.5344 33.2858 11.0387 33.5851 9.74133C33.746 9.47264 33.8386 9.15824 33.8386 8.82223ZM11.7929 26.9044C11.9178 25.0008 12.5349 23.1471 13.6032 21.5328C15.1303 19.225 17.4681 17.5746 20.154 16.9082C22.8399 16.2418 25.6781 16.608 28.1069 17.9344C30.5356 19.2607 32.378 21.4504 33.2693 24.0703C34.1607 26.6901 34.036 29.5491 32.92 32.0814C31.8041 34.6138 29.7781 36.6349 27.2431 37.7448C24.7081 38.8546 21.8488 38.9724 19.2311 38.0748C17.33 37.4229 15.6569 36.2699 14.3776 34.7559C13.5739 33.8048 13.9947 32.4159 15.0891 31.8217C16.1834 31.2276 17.5343 31.6757 18.4636 32.5045C19.1073 33.0786 19.8638 33.5246 20.6938 33.8092C22.2427 34.3404 23.9346 34.2707 25.4345 33.614C26.9345 32.9572 28.1333 31.7613 28.7936 30.263C29.4539 28.7646 29.5277 27.0729 29.0003 25.5227C28.4729 23.9725 27.3827 22.6768 25.9456 21.8921C24.5085 21.1073 22.8291 20.8906 21.2399 21.2849C19.6506 21.6792 18.2673 22.6557 17.3637 24.0213C17.169 24.3155 16.9997 24.6231 16.8563 24.9409H23.439C24.7049 24.9409 25.7312 25.9672 25.7312 27.2331C25.7312 28.4991 24.7049 29.5254 23.439 29.5254H14.0617C12.7957 29.5254 11.7695 28.4991 11.7695 27.2331C11.7695 27.1215 11.7774 27.0117 11.7929 26.9044Z" fill="#121212"/>
<defs>
<filter id="filter0_d_104_266" x="54.981" y="9.54932" width="79.1444" height="33.3998" filterUnits="userSpaceOnUse" color-interpolation-filters="sRGB">
<feFlood flood-opacity="0" result="BackgroundImageFix"/>
<feColorMatrix in="SourceAlpha" type="matrix" values="0 0 0 0 0 0 0 0 0 0 0 0 0 0 0 0 0 0 127 0" result="hardAlpha"/>
<feOffset dy="2.21528"/>
<feGaussianBlur stdDeviation="1.10764"/>
<feComposite in2="hardAlpha" operator="out"/>
<feColorMatrix type="matrix" values="0 0 0 0 0 0 0 0 0 0 0 0 0 0 0 0 0 0 0.25 0"/>
<feBlend mode="normal" in2="BackgroundImageFix" result="effect1_dropShadow_104_266"/>
<feBlend mode="normal" in="SourceGraphic" in2="effect1_dropShadow_104_266" result="shape"/>
</filter>
<linearGradient id="paint0_linear_104_266" x1="6.47656" y1="7.73438" x2="39.875" y2="32.3438" gradientUnits="userSpaceOnUse">
<stop stop-color="#22F02B"/>
<stop offset="1" stop-color="#F6F335"/>
</linearGradient>
</defs>
</svg>
