<svg width="969" height="874" viewBox="0 0 969 874" fill="none" xmlns="http://www.w3.org/2000/svg">
<g filter="url(#filter0_ddddd_31_4050)">
<path d="M421.293 344.639C420.379 341.953 413.235 324.415 409.396 316.466C407.837 319.58 400.852 326.884 397.038 327.827C397.401 329.519 398.568 334.594 399.242 338.085C406.714 339.837 414.077 342.026 421.293 344.639Z" fill="url(#paint0_linear_31_4050)"/>
<path d="M477.749 548.1C464.409 548.518 451.283 551.567 439.124 557.072C429.213 561.059 370.739 586.071 361.767 588.069C360.157 588.431 359.566 586.256 360.853 585.383C374.498 577.045 452.018 546.356 465.616 544.152C464.757 542.111 456.832 508.696 464.191 514.605C466.877 516.725 468.461 539.798 468.947 543.779C482.697 542.271 545.413 545.413 562.954 546.008C559.438 530.671 555.302 512.966 553.555 508.402C547.215 507.648 465.775 506.63 455.005 506.869C435.398 507.326 373.323 533.73 355.945 544.257C350.359 547.643 345.9 546.273 344.613 544.58C307.189 495.175 238.694 342.598 244.255 293.016C244.469 291 247.641 291.377 247.721 293.335C250.059 362.663 313.333 482.27 348.579 541.647C353.523 537.239 377.724 526.785 384.626 523.885C372.377 519.988 357.765 504.31 354.81 488.809C317.208 476.314 307.482 404.347 317.69 365.494C321.558 350.689 343.37 339.169 357.119 339.84C357.119 337.56 356.612 326.706 357.119 317.655C351.508 318.017 332.948 316.527 334.209 297.373C331.887 297.333 329.608 296.738 327.562 295.638C325.516 294.537 323.764 292.963 322.451 291.047C321.138 289.131 320.303 286.928 320.015 284.623C319.727 282.318 319.995 279.978 320.797 277.798C309.596 277.798 251.849 280.912 243.171 285.026C234.493 289.14 216.709 309.411 214.458 319.59C212.206 329.769 218.246 361.303 260.133 461.114C302.019 560.925 321.011 589.385 338.509 591.107C350.834 592.314 422.685 592.636 446.86 591.107C446.11 588.043 439.74 574.069 437.7 566.42C435.659 558.772 468.24 550.148 470.604 557.021C474.748 568.037 478.086 579.339 480.594 590.838C485.307 590.838 511.244 590.353 524.997 590.084C538.75 589.816 563.672 575.849 568.751 569.995C568.185 568.113 566.413 560.327 564.263 550.844C538.148 550.064 502.486 548.118 477.749 548.1Z" fill="url(#paint1_linear_31_4050)"/>
<path d="M560.237 355.549C555.808 356.409 551.328 356.982 546.825 357.267C544.947 357.267 489.72 345.305 487.375 345.852C485.029 346.399 478.725 373.623 474.832 387.133C488.451 375.896 488.799 363.498 502.382 371.02C508.157 374.243 512.724 387.565 511.702 393.285C510.68 399.005 500.504 417.003 486.106 430.376C489.785 427.904 513.768 410.152 530.693 399.926C531.012 399.564 541.206 367.885 543.827 362.752C543.967 362.527 544.181 362.358 544.432 362.272C544.683 362.186 544.956 362.189 545.205 362.28C545.454 362.372 545.664 362.546 545.799 362.774C545.935 363.001 545.989 363.269 545.951 363.531C542.565 374.863 538.723 386.064 535.206 397.349L547.963 391.502C551.722 380.989 555.644 371.412 559.537 360.961C560.237 359.083 562.412 359.351 561.741 361.229C558.222 371.06 554.919 380.703 551.294 390.508C558.901 388.16 567.125 388.883 574.204 392.524C575.226 390.454 599.293 336.572 598.782 336.253C598.271 335.934 561.415 355.063 560.237 355.549Z" fill="url(#paint2_linear_31_4050)"/>
<path d="M826.635 675.014C737.432 675.014 192.685 676.826 142.598 677.41C139.752 677.41 139.107 681.919 142.061 681.919C231.236 682.401 775.929 680.603 825.997 680.31C829.347 680.281 830.047 675.014 826.635 675.014Z" fill="white" fill-opacity="0.9"/>
<path d="M330.289 269.81C318.928 274.725 324.351 296.671 339.798 293.553C336.144 306.241 346.779 317.351 362.2 310.638C361.366 316.84 359.916 336.988 361.113 342.868C358.426 343.593 355.983 343.165 356.063 345.34C356.063 348.458 362.99 346.522 364.121 345.34C365.252 344.158 364.926 334.168 365.006 331.928C365.542 316.724 367.13 308.129 368.848 293.332C369.385 288.819 366.536 290.646 364.39 285.274C361.852 278.879 367.076 272.891 373.119 276.813C374.703 277.832 384.131 272.166 385.556 263.194C395.84 269.291 406.425 275.156 418.725 275.309C416.767 284.842 404.587 325.453 388.884 322.553C382.518 321.401 378.679 314.093 375.964 308.963C375.793 308.733 375.554 308.563 375.28 308.476C375.007 308.39 374.714 308.391 374.441 308.48C374.168 308.568 373.931 308.741 373.761 308.972C373.591 309.203 373.499 309.481 373.496 309.768C374.623 317.449 381.982 326.367 389.609 326.664C393.129 346.62 390.468 343.774 397.105 345.467C401.296 346.515 405.403 347.776 409.648 348.581C410.078 348.659 410.522 348.574 410.894 348.345C411.266 348.115 411.54 347.756 411.663 347.336C411.787 346.916 411.75 346.466 411.562 346.071C411.373 345.677 411.045 345.366 410.641 345.199C405.725 343.665 400.705 342.513 395.706 341.247C394.792 336.252 393.893 331.257 393.02 326.262C402.905 323.387 411.177 307.916 415.045 299.4C417.184 300.113 419.465 300.287 421.687 299.908C423.909 299.53 426.004 298.609 427.786 297.228C429.567 295.847 430.981 294.049 431.903 291.992C432.824 289.935 433.225 287.682 433.069 285.433C443.813 288.442 453.401 276.371 446.793 264.35C458.346 265.209 466.132 245.547 454.851 238.403C467.746 230.344 456.385 214.478 447.239 214.981C453.336 198.194 439.181 191.238 425.188 199.213C421.965 176.651 399.886 180.896 394.807 190.375C388.55 176.962 371.574 182.32 369.102 193.438C362.577 184.118 334.936 196.501 342.404 215.141C327.284 210.066 320.165 226.179 329.325 237.543C318.229 238.41 314.85 266.076 330.289 269.81Z" fill="white" fill-opacity="0.9"/>
<path d="M399.244 302.792C402.169 302.825 404.373 300.32 403.351 299.222C402.328 298.123 401.821 299.997 400.291 300.309C398.506 300.495 396.709 300.079 395.187 299.127C392.824 298.04 393.36 302.727 399.244 302.792Z" fill="white" fill-opacity="0.9"/>
<path d="M386.425 298.387C383.921 297.277 382.21 305.825 389.434 308.859C393.059 310.393 395.426 307.007 393.142 306.445C389.354 305.557 387.368 303.759 386.882 301.073C386.694 299.837 387.23 298.742 386.425 298.387Z" fill="white" fill-opacity="0.9"/>
<path d="M395.292 286.247C394.462 283.746 390.942 288.933 392.849 290.166C394.755 291.398 395.803 287.48 395.292 286.247Z" fill="white" fill-opacity="0.9"/>
<path d="M398.861 275.527C397.061 274.937 395.112 274.984 393.342 275.659C391.572 276.334 390.088 277.597 389.139 279.236C388.25 283.049 392.764 278.148 396.631 278.67C401.485 279.236 399.593 275.781 398.861 275.527Z" fill="white" fill-opacity="0.9"/>
<path d="M410.091 281.925C412.24 282.973 412.777 284.985 413.234 285.188C414.709 285.724 414.684 283.415 414.172 282.501C413.905 281.749 413.474 281.066 412.91 280.502C412.345 279.937 411.662 279.506 410.91 279.239C408.739 278.996 409.123 281.385 410.091 281.925Z" fill="white" fill-opacity="0.9"/>
<path d="M407.434 293.499C409.101 294.024 409.529 290.813 409.286 289.794C408.739 286.756 405.154 292.785 407.434 293.499Z" fill="white" fill-opacity="0.9"/>
<path d="M479.927 392.775C483.741 389.552 493.34 379.185 493.735 374.675C493.74 374.548 493.719 374.421 493.675 374.302C493.631 374.182 493.564 374.073 493.477 373.98C493.391 373.887 493.287 373.811 493.171 373.758C493.055 373.705 492.93 373.676 492.803 373.671C492.564 373.66 492.329 373.74 492.147 373.896C487.851 379.709 483.09 385.164 477.912 390.208C475.949 391.688 474.148 393.371 472.539 395.229C471.978 395.852 472.054 399.43 479.927 392.775Z" fill="white" fill-opacity="0.9"/>
<path d="M474.448 430.291C486.614 423.976 498.188 410.227 504.771 398.061C505.944 396.275 506.781 394.29 507.24 392.203C507.24 391.159 505.953 390.217 505.337 391.21C493.519 410.361 491.747 413.018 473.103 428.413C472.922 428.613 472.815 428.869 472.8 429.139C472.784 429.408 472.862 429.675 473.019 429.894C473.176 430.114 473.403 430.273 473.664 430.345C473.924 430.417 474.2 430.398 474.448 430.291Z" fill="white" fill-opacity="0.9"/>
<path d="M498.64 374.936C497.114 375.563 492.3 384.524 491.415 386.028C489.347 389.464 486.953 392.693 484.267 395.671C482.926 397.175 485.557 401.768 493.967 387.968C495.095 386.112 500.627 377.865 500.384 375.715C500.315 374.856 499.296 374.671 498.64 374.936Z" fill="white" fill-opacity="0.9"/>
<path d="M499.533 393.315C500.954 390.9 504.905 383.995 504.155 381.417C503.698 379.967 502.056 380.638 500.689 383.433C497.774 390.129 494.048 396.443 489.597 402.232C488.868 403.171 489.615 410.153 499.533 393.315Z" fill="white" fill-opacity="0.9"/>
<path d="M457.474 408.409C457.283 408.615 457.164 408.878 457.133 409.157C457.102 409.436 457.162 409.718 457.303 409.961C457.444 410.205 457.659 410.396 457.917 410.508C458.175 410.62 458.461 410.647 458.735 410.584C468.835 407.901 464.619 393.499 467.033 388.073C468.298 385.202 471.224 381.711 471.224 379.344C471.223 379.002 471.086 378.675 470.844 378.433C470.602 378.192 470.275 378.057 469.933 378.057C469.718 378.06 469.507 378.115 469.317 378.216C467.188 380.322 465.475 382.81 464.267 385.55C460.965 392.129 463.571 397.313 462.012 402.42C461.052 404.781 459.487 406.846 457.474 408.409Z" fill="white" fill-opacity="0.9"/>
<path d="M427.202 364.892C425.962 363.96 424.73 366.048 425.723 367.042C437.783 379.004 449.064 381.708 451.562 398.63C453.012 408.323 456.666 406.068 455.379 398.173C452.827 382.437 444.323 377.772 427.202 364.892Z" fill="white" fill-opacity="0.9"/>
<path d="M340.469 473.997C345.061 479.045 350.712 483.016 357.017 485.626C357.017 488.124 368.86 512.814 384.332 518.744C384.666 518.808 385.012 518.764 385.319 518.619C385.627 518.474 385.881 518.235 386.045 517.937C386.209 517.639 386.275 517.297 386.233 516.96C386.191 516.622 386.043 516.307 385.811 516.058C375.167 508.324 366.558 498.124 360.722 486.333C364.665 487.072 368.674 487.405 372.685 487.326C409.054 486.17 440.835 461.756 466.935 438.121C467.873 437.287 467.794 436.239 467.551 434.978C467.551 434.978 465.133 418.509 456.806 412.361C453.961 410.266 454.269 410.698 451.92 412.064C428.872 425.281 406.607 438.925 379.532 440.778C370.803 414.315 370.669 404.84 371.126 386.682C371.126 384.75 368.226 385.391 367.983 387.005C366.29 398.742 369.567 428.29 377.169 440.723C373.946 440.887 370.694 440.966 367.417 441.046C365.913 441.046 365.188 443.518 366.906 443.866C396.106 449.721 430.888 428.746 454.606 414C460.275 420.102 463.588 428.023 463.951 436.344C439.78 457.565 411.896 479.322 378.764 482.813C362.915 484.532 353.784 483.433 342.985 470.851C327.999 453.393 324.186 423.726 322.87 403.379C321.257 375.956 323.232 357.236 350.373 349.312C362.458 369.612 404.951 372.874 418.16 350.816C431.83 353.825 447.842 366.476 458.612 377.674C461.298 380.36 466.909 375.368 440.831 358.461C438.493 356.928 416.656 343.766 415.902 348.522C415.902 348.522 398.821 373.69 364.869 357.762C352.029 351.719 353.429 344.868 350.369 345.727C322.946 353.412 317.653 370.377 318.567 397.169C319.303 420.572 322.631 454.426 340.469 473.997Z" fill="white" fill-opacity="0.9"/>
<path d="M710.439 472.628C714.111 470.678 748.389 448.776 750.727 449.367C751.481 449.555 751.184 449.044 751.235 450.041C751.286 451.038 720.785 493.82 717.689 498.387C710.867 508.298 707.485 503.76 697.027 498.978C694.529 497.851 693.133 501.664 695.551 502.966C703.044 506.671 710.646 511.988 717.359 505.086C718.168 504.227 753.943 454.481 754.965 451.074C755.184 450.425 755.236 449.731 755.116 449.057C754.997 448.382 754.71 447.749 754.282 447.214C753.854 446.679 753.299 446.26 752.667 445.996C752.035 445.732 751.347 445.631 750.666 445.702C745.08 445.702 713.894 466.223 708.898 470.036C707.456 470.99 708.888 473.451 710.439 472.628Z" fill="white" fill-opacity="0.9"/>
<path d="M618.82 670.396C634.451 669.334 651.054 671.201 667.167 670.719C670.067 670.719 676.113 670.719 674.5 665.883C673.213 662.149 668.541 660.808 665.26 659.572C653.577 655.117 642.618 649.284 630.881 644.938C628.343 643.991 626.397 647.78 628.949 648.722C641.491 653.286 653.283 659.463 665.826 663.947C671.412 665.23 672.478 666.985 665.463 667.141C648.031 667.503 630.707 665.259 613.263 666.952C603.164 667.945 599.564 668.04 598.625 664.103C598.275 659.912 598.491 655.694 599.267 651.56C599.267 650.056 597.172 649.868 596.581 650.995C594.429 655.501 593.843 660.596 594.917 665.473C596.74 674.075 611.784 670.874 618.82 670.396Z" fill="white" fill-opacity="0.9"/>
<path d="M441.947 566.225C443.52 575.875 477.994 645.464 484.414 657.793C494.806 677.752 498.808 674.261 493.331 654.356C485.03 624.189 477.403 590.194 466.869 561.234C466.223 559.486 463.457 560.534 463.86 562.252C470.359 589.461 481.804 624.033 489.753 659.137C478.07 636.815 457.201 592.198 444.575 565.127C443.901 563.764 441.675 564.572 441.947 566.225Z" fill="white" fill-opacity="0.9"/>
<path d="M360.373 599.351C354.276 616.867 348.581 634.513 342.727 652.131C335.607 673.62 335.553 682.805 349.063 656.752C359.271 637.094 374.717 605.72 377.266 600.159C378.208 598.147 374.768 596.396 373.75 598.412C364.793 616.319 355.894 634.225 347.051 652.131C352.743 634.865 358.68 617.671 364.132 600.318C364.698 598.038 360.91 597.4 360.373 599.351Z" fill="white" fill-opacity="0.9"/>
<path d="M193.142 648.322C215.255 595.194 239.825 542.472 264.482 490.385C265.57 488.155 262.278 486.086 261.176 488.34C237.164 537.55 215.302 586.973 193.222 637.041C212.775 578.915 229.777 522.267 250.809 455.683C251.454 453.667 247.934 452.46 247.238 454.526C225.561 518.294 207.269 583.265 185.004 647.485C172.86 682.539 179.675 680.647 193.142 648.322Z" fill="white" fill-opacity="0.9"/>
<path d="M519.381 191.297C543.085 194.9 572.752 196.078 597.275 197.343C603.775 197.706 604.848 196.778 606.621 191.405C612.422 175.847 613.359 158.893 609.307 142.79C604.282 124.872 590.856 109.44 572.053 106.018C574.998 98.4819 577.553 90.7988 579.709 82.9997C582.421 83.1087 585.066 82.1435 587.071 80.3135C620.197 106.728 654.118 132.132 688.785 156.489C688.284 157.88 688.063 159.357 688.133 160.833C688.204 162.31 688.565 163.759 689.197 165.096C689.828 166.432 690.717 167.632 691.813 168.624C692.908 169.617 694.189 170.384 695.582 170.881C695.778 170.949 695.977 171.015 696.173 171.073C694.802 261.995 695.259 355.44 699.638 446.359C699.638 447.021 699.901 447.656 700.37 448.125C700.838 448.593 701.473 448.856 702.136 448.856C702.798 448.856 703.433 448.593 703.902 448.125C704.37 447.656 704.633 447.021 704.633 446.359C702.096 354.338 700.283 263.873 701.088 171.718C703.291 171.612 705.38 170.71 706.968 169.18C714.653 174.553 722.36 179.657 730.041 184.895C732.727 186.773 735.413 182.357 732.727 180.516C724.941 175.412 717.207 170.245 709.527 165.015C709.993 163.71 710.197 162.325 710.127 160.94C710.058 159.556 709.716 158.198 709.122 156.946C708.528 155.693 707.693 154.57 706.664 153.64C705.636 152.71 704.435 151.992 703.129 151.527C702.468 151.293 701.786 151.125 701.092 151.023C701.092 145.893 700.958 140.76 700.773 135.606C700.724 135.216 700.534 134.857 700.239 134.598C699.945 134.338 699.565 134.194 699.172 134.194C698.779 134.194 698.4 134.338 698.105 134.598C697.811 134.857 697.621 135.216 697.572 135.606C697.209 140.681 696.927 145.785 696.713 150.863C694.952 151.06 693.265 151.682 691.797 152.676C656.878 128.316 623.013 102.651 589.728 76.2862C590.952 73.9689 591.258 71.2759 590.587 68.7429C589.915 66.21 588.314 64.0227 586.103 62.6163L590.993 47.0288C591.907 44.1288 587.531 42.1387 586.618 45.093C584.921 50.4653 583.203 55.8375 581.51 61.3729C578.863 61.2631 576.261 62.0797 574.152 63.682C565.506 56.5625 556.799 49.501 547.588 43.2407C547.296 43.0377 546.938 42.9515 546.586 42.9991C546.234 43.0467 545.912 43.2246 545.685 43.4976C545.457 43.7707 545.34 44.1192 545.357 44.4742C545.374 44.8293 545.523 45.1652 545.775 45.4157C553.712 53.2676 562.117 60.6325 570.943 67.4702C570.158 68.6643 569.637 70.013 569.416 71.4254C569.196 72.8378 569.28 74.281 569.665 75.6579C570.049 77.0347 570.724 78.3132 571.645 79.4071C572.565 80.5009 573.709 81.3848 575 81.9992C572.308 89.748 570.009 97.6279 568.112 105.609C556.542 104.696 544.987 107.555 535.177 113.758C525.368 119.961 517.83 129.173 513.694 140.017C508.301 154.019 507.762 169.426 512.164 183.771C514.248 188.748 514.419 190.543 519.381 191.297ZM517.098 147.072C529.35 104.5 586.208 95.234 603.05 140.061C609.365 156.957 606.621 175.705 600.658 192.279C572.914 192.044 545.203 190.314 517.645 187.095C515.191 172.468 512.613 162.666 517.098 147.086V147.072Z" fill="white" fill-opacity="0.9"/>
<path d="M707.4 514.582C707.4 512.997 702.916 512.62 702.941 514.393C702.941 559.571 702.644 599.675 702.644 638.644C695.582 641.87 680.727 652.64 672.538 658.117C680.596 661.934 681.535 667.093 680.596 670.312C684.921 670.584 750.805 670.826 759.484 670.312C767.27 669.859 720.939 643.269 708.288 638.488C708.016 599.004 707.777 556.595 707.4 514.582Z" fill="white" fill-opacity="0.9"/>
<path d="M551.563 491.431C565.922 518.256 586.32 614.681 591.29 646.276C605.505 645.939 619.626 643.87 633.34 640.114C632.64 633.317 617.223 545.969 609.327 488.462C603.578 445.487 595.089 444.36 588.665 443.178C570.881 439.847 533.681 495.741 523.339 502.266C531.397 501.595 540.449 502.777 552.024 502.693C550.871 499.311 549.743 495.926 548.667 492.514C548.574 492.143 548.621 491.751 548.799 491.412C548.977 491.073 549.273 490.812 549.632 490.678C549.99 490.543 550.385 490.545 550.742 490.683C551.099 490.822 551.392 491.086 551.567 491.427L551.563 491.431Z" fill="white" fill-opacity="0.9"/>
<path d="M585.589 438.406C602.405 438.406 607.723 452.508 610.543 472.09C614.868 473.109 662.598 491.27 687.393 501.851C690.699 496.261 699.856 474.642 704.851 467.254C695.789 463.897 582.294 394.33 559.808 394.33C524.892 394.33 418.07 494.25 402.812 514.343C447.346 499.082 463.76 501.608 514.252 503.142C532.272 492.209 561.174 438.406 585.589 438.406Z" fill="white" fill-opacity="0.9"/>
<path d="M498.299 344.803C506.637 345.804 515.337 343.031 523.953 343.944C534.082 345.617 543.859 348.976 552.877 353.88C555.349 355.037 555.349 351.194 562.063 347.058C570.661 341.874 586.561 339.779 591.346 334.541C591.958 333.87 591.346 332.5 590.432 332.986C587.001 334.84 583.404 336.368 579.688 337.55C572.459 339.833 557.822 342.117 553.308 350.121C542.325 344.992 534.183 341.526 524.272 340.772C516.594 340.181 503.809 342.733 495.635 341.983C494.351 341.874 492.981 344.162 498.299 344.803Z" fill="white" fill-opacity="0.9"/>
</g>
<defs>
<filter id="filter0_ddddd_31_4050" x="-18" y="-24" width="1005" height="1388" filterUnits="userSpaceOnUse" color-interpolation-filters="sRGB">
<feFlood flood-opacity="0" result="BackgroundImageFix"/>
<feColorMatrix in="SourceAlpha" type="matrix" values="0 0 0 0 0 0 0 0 0 0 0 0 0 0 0 0 0 0 127 0" result="hardAlpha"/>
<feOffset dy="20"/>
<feGaussianBlur stdDeviation="22"/>
<feColorMatrix type="matrix" values="0 0 0 0 0 0 0 0 0 0 0 0 0 0 0 0 0 0 0.49 0"/>
<feBlend mode="normal" in2="BackgroundImageFix" result="effect1_dropShadow_31_4050"/>
<feColorMatrix in="SourceAlpha" type="matrix" values="0 0 0 0 0 0 0 0 0 0 0 0 0 0 0 0 0 0 127 0" result="hardAlpha"/>
<feOffset dy="80"/>
<feGaussianBlur stdDeviation="40"/>
<feColorMatrix type="matrix" values="0 0 0 0 0 0 0 0 0 0 0 0 0 0 0 0 0 0 0.43 0"/>
<feBlend mode="normal" in2="effect1_dropShadow_31_4050" result="effect2_dropShadow_31_4050"/>
<feColorMatrix in="SourceAlpha" type="matrix" values="0 0 0 0 0 0 0 0 0 0 0 0 0 0 0 0 0 0 127 0" result="hardAlpha"/>
<feOffset dy="180"/>
<feGaussianBlur stdDeviation="54"/>
<feColorMatrix type="matrix" values="0 0 0 0 0 0 0 0 0 0 0 0 0 0 0 0 0 0 0.25 0"/>
<feBlend mode="normal" in2="effect2_dropShadow_31_4050" result="effect3_dropShadow_31_4050"/>
<feColorMatrix in="SourceAlpha" type="matrix" values="0 0 0 0 0 0 0 0 0 0 0 0 0 0 0 0 0 0 127 0" result="hardAlpha"/>
<feOffset dy="319"/>
<feGaussianBlur stdDeviation="64"/>
<feColorMatrix type="matrix" values="0 0 0 0 0 0 0 0 0 0 0 0 0 0 0 0 0 0 0.07 0"/>
<feBlend mode="normal" in2="effect3_dropShadow_31_4050" result="effect4_dropShadow_31_4050"/>
<feColorMatrix in="SourceAlpha" type="matrix" values="0 0 0 0 0 0 0 0 0 0 0 0 0 0 0 0 0 0 127 0" result="hardAlpha"/>
<feOffset dy="499"/>
<feGaussianBlur stdDeviation="70"/>
<feColorMatrix type="matrix" values="0 0 0 0 0 0 0 0 0 0 0 0 0 0 0 0 0 0 0.01 0"/>
<feBlend mode="normal" in2="effect4_dropShadow_31_4050" result="effect5_dropShadow_31_4050"/>
<feBlend mode="normal" in="SourceGraphic" in2="effect5_dropShadow_31_4050" result="shape"/>
</filter>
<linearGradient id="paint0_linear_31_4050" x1="409.166" y1="316.466" x2="409.166" y2="344.639" gradientUnits="userSpaceOnUse">
<stop stop-color="#22F02B"/>
<stop offset="1" stop-color="#F6F335"/>
</linearGradient>
<linearGradient id="paint1_linear_31_4050" x1="391.401" y1="277.798" x2="391.401" y2="592.136" gradientUnits="userSpaceOnUse">
<stop stop-color="#22F02B"/>
<stop offset="1" stop-color="#F6F335"/>
</linearGradient>
<linearGradient id="paint2_linear_31_4050" x1="536.811" y1="336.249" x2="536.811" y2="430.376" gradientUnits="userSpaceOnUse">
<stop stop-color="#22F02B"/>
<stop offset="1" stop-color="#F6F335"/>
</linearGradient>
</defs>
</svg>
